*
*
G04 PADS VX.2 Build Number: 5060570 generated Gerber (RS-274-X) file*
G04 PC Version=2.1*
*
%IN "Board2.pcb"*%
*
%MOIN*%
*
%FSLAX35Y35*%
*
*
*
*
G04 PC Standard Apertures*
*
*
G04 Thermal Relief Aperture macro.*
%AMTER*
1,1,$1,0,0*
1,0,$1-$2,0,0*
21,0,$3,$4,0,0,45*
21,0,$3,$4,0,0,135*
%
*
*
G04 Annular Aperture macro.*
%AMANN*
1,1,$1,0,0*
1,0,$2,0,0*
%
*
*
G04 Odd Aperture macro.*
%AMODD*
1,1,$1,0,0*
1,0,$1-0.005,0,0*
%
*
*
G04 PC Custom Aperture Macros*
*
*
*
*
*
*
G04 PC Aperture Table*
*
%ADD010C,0.001*%
%ADD011C,0.008*%
%ADD015C,0.01*%
%ADD053R,0.03937X0.0374*%
%ADD055R,0.0374X0.03937*%
%ADD067R,0.0473X0.056*%
%ADD077C,0.5*%
%ADD078C,0.06*%
%ADD082C,0.156*%
%ADD083C,0.125*%
%ADD127C,0.35433*%
%ADD128C,0.04*%
%ADD129C,0.05*%
%ADD132C,0.053*%
%ADD133C,0.065*%
%ADD135R,0.022X0.012*%
%ADD136R,0.04331X0.02559*%
%ADD137R,0.043X0.01*%
*
*
*
*
G04 PC Circuitry*
G04 Layer Name Board2.pcb - circuitry*
%LPD*%
*
*
G04 PC Custom Flashes*
G04 Layer Name Board2.pcb - flashes*
%LPD*%
*
*
G04 PC Circuitry*
G04 Layer Name Board2.pcb - circuitry*
%LPD*%
*
G54D10*
G54D11*
G01X297500Y160500D02*
Y144500D01*
X290500*
Y160500*
X297500*
X282000Y164938D02*
Y162125D01*
X281864Y161563*
X281864D02*
X281591Y161188D01*
X281591D02*
X281182Y161000D01*
X280909*
X280500Y161188*
X280500D02*
X280227Y161563D01*
X280227D02*
X280091Y162125D01*
Y164938*
X278591D02*
X277091D01*
X277091D02*
X277909Y163438D01*
X277909D02*
X277500D01*
X277500D02*
X277227Y163250D01*
X277091Y163063*
X277091D02*
X276955Y162500D01*
Y162125*
X277091Y161563*
X277091D02*
X277364Y161188D01*
X277364D02*
X277773Y161000D01*
X278182*
X278591Y161188*
X278591D02*
X278727Y161375D01*
X278864Y161750*
X275727Y164188D02*
X275455Y164375D01*
X275045Y164938*
X275045D02*
Y161000D01*
X266000Y166938D02*
Y164125D01*
X265864Y163563*
X265864D02*
X265591Y163188D01*
X265591D02*
X265182Y163000D01*
X264909*
X264500Y163188*
X264500D02*
X264227Y163563D01*
X264227D02*
X264091Y164125D01*
Y166938*
X262591D02*
X261091D01*
X261091D02*
X261909Y165438D01*
X261909D02*
X261500D01*
X261500D02*
X261227Y165250D01*
X261091Y165063*
X261091D02*
X260955Y164500D01*
Y164125*
X261091Y163563*
X261091D02*
X261364Y163188D01*
X261364D02*
X261773Y163000D01*
X262182*
X262591Y163188*
X262591D02*
X262727Y163375D01*
X262864Y163750*
X259591Y166000D02*
Y166188D01*
X259591D02*
X259455Y166563D01*
X259455D02*
X259318Y166750D01*
X259045Y166938*
X259045D02*
X258500D01*
X258500D02*
X258227Y166750D01*
X258091Y166563*
X258091D02*
X257955Y166188D01*
X257955D02*
Y165813D01*
X257955D02*
X258091Y165438D01*
X258091D02*
X258364Y164875D01*
X259727Y163000*
X257818*
X251000Y166938D02*
Y164125D01*
X250864Y163563*
X250864D02*
X250591Y163188D01*
X250591D02*
X250182Y163000D01*
X249909*
X249500Y163188*
X249500D02*
X249227Y163563D01*
X249227D02*
X249091Y164125D01*
Y166938*
X247591D02*
X246091D01*
X246091D02*
X246909Y165438D01*
X246909D02*
X246500D01*
X246500D02*
X246227Y165250D01*
X246091Y165063*
X246091D02*
X245955Y164500D01*
Y164125*
X246091Y163563*
X246091D02*
X246364Y163188D01*
X246364D02*
X246773Y163000D01*
X247182*
X247591Y163188*
X247591D02*
X247727Y163375D01*
X247864Y163750*
X244455Y166938D02*
X242955D01*
X242955D02*
X243773Y165438D01*
X243773D02*
X243364D01*
X243364D02*
X243091Y165250D01*
X242955Y165063*
X242955D02*
X242818Y164500D01*
Y164125*
X242955Y163563*
X242955D02*
X243227Y163188D01*
X243227D02*
X243636Y163000D01*
X244045*
X244455Y163188*
X244455D02*
X244591Y163375D01*
X244727Y163750*
X295938Y162000D02*
X292000D01*
X295938D02*
Y163227D01*
X295750Y163636*
X295563Y163773*
X295188Y163909*
X294813*
X294438Y163773*
X294250Y163636*
X294063Y163227*
Y162000*
Y162955D02*
X292000Y163909D01*
X295000Y165273D02*
X295188D01*
X295563Y165409*
X295750Y165545*
X295938Y165818*
Y166364*
X295750Y166636*
X295563Y166773*
X295188Y166909*
X294813*
X294438Y166773*
X293875Y166500*
X292000Y165136*
Y167045*
X295938Y169091D02*
X295750Y168682D01*
X295188Y168409*
X294250Y168273*
X293688*
X292750Y168409*
X292188Y168682*
X292000Y169091*
Y169364*
X292188Y169773*
X292750Y170045*
X293688Y170182*
X294250*
X295188Y170045*
X295750Y169773*
X295938Y169364*
Y169091*
Y172091D02*
X295750Y171682D01*
X295375Y171545*
X295000*
X294625Y171682*
X294438Y171955*
X294250Y172500*
X294063Y172909*
X293688Y173182*
X293313Y173318*
X292750*
X292375Y173182*
X292188Y173045*
X292000Y172636*
Y172091*
X292188Y171682*
X292375Y171545*
X292750Y171409*
X293313*
X293688Y171545*
X294063Y171818*
X294250Y172227*
X294438Y172773*
X294625Y173045*
X295000Y173182*
X295375*
X295750Y173045*
X295938Y172636*
Y172091*
G54D15*
X100000Y100000D02*
Y825000D01*
X455000*
Y100000*
X100000*
G54D53*
X334000Y417150D03*
Y410850D03*
X351500Y422650D03*
Y416350D03*
X358000Y422650D03*
Y416350D03*
X302500Y157150D03*
Y150850D03*
G54D55*
X316350Y426500D03*
X322650D03*
X244350Y147000D03*
X250650D03*
X243350Y129500D03*
X249650D03*
X349850Y400000D03*
X356150D03*
X259350Y147000D03*
X265650D03*
X326150Y542000D03*
X319850D03*
G54D67*
X294000Y157200D03*
Y147800D03*
G54D77*
X417500Y312500D03*
Y550500D03*
G54D78*
X354500Y471000D03*
Y463000D03*
Y455500D03*
G54D82*
X438750Y451250D02*
X438850D01*
Y435350*
X438750*
Y451250*
Y443200D02*
X438850D01*
X438750Y490650D02*
X438850D01*
Y474750*
X438750*
Y490650*
Y490000D02*
X438850D01*
G54D83*
X120000Y797500D03*
X430000Y125000D03*
Y797500D03*
X120000Y125000D03*
G54D127*
X417500Y233500D03*
G54D128*
X128000Y416000D03*
X135500D03*
X128000Y411000D03*
X135500D03*
X128000Y406000D03*
X135500D03*
X128000Y401000D03*
X135500D03*
X128000Y396000D03*
X135500D03*
X128000Y391000D03*
X135500D03*
X128000Y386000D03*
X135500D03*
X128000Y381000D03*
X135500D03*
X128000Y376000D03*
X135500D03*
X128000Y371000D03*
X135500D03*
X128000Y366000D03*
X135500D03*
X128000Y361000D03*
X135500D03*
X128000Y356000D03*
X135500D03*
X128000Y351000D03*
X135500D03*
X128000Y346000D03*
X135500D03*
X426500Y670000D03*
X419000D03*
X426500Y675000D03*
X419000D03*
X426500Y680000D03*
X419000D03*
X426500Y685000D03*
X419000D03*
X426500Y690000D03*
X419000D03*
X426500Y726500D03*
X419000D03*
X426500Y731500D03*
X419000D03*
X426500Y736500D03*
X419000D03*
X426500Y741500D03*
X419000D03*
X426500Y746500D03*
X419000D03*
X426500Y751500D03*
X419000D03*
X426500Y756500D03*
X419000D03*
X426500Y761500D03*
X419000D03*
X426500Y766500D03*
X419000D03*
X426500Y771500D03*
X419000D03*
X434500Y199000D03*
X429500D03*
G54D129*
X109400Y426200D03*
X118300D03*
X109400Y335800D03*
X118300D03*
X445100Y659800D03*
X436200D03*
X445100Y700200D03*
X436200D03*
X445100Y716300D03*
X436200D03*
X445100Y781700D03*
X436200D03*
G54D132*
X444700Y199000D03*
X419300D03*
G54D133*
X263500Y138000D03*
X253500D03*
X243500D03*
X233500D03*
Y108000D03*
X263500D03*
X303500Y138000D03*
X293500D03*
X283500D03*
X273500D03*
Y108000D03*
X303500D03*
G54D135*
X316900Y415500D03*
Y417500D03*
Y419500D03*
Y421500D03*
X322100D03*
Y419500D03*
Y417500D03*
Y415500D03*
X355600Y410000D03*
Y408000D03*
Y406000D03*
Y404000D03*
X350400D03*
Y406000D03*
Y408000D03*
Y410000D03*
X331400Y401000D03*
Y403000D03*
Y405000D03*
Y407000D03*
X336600D03*
Y405000D03*
Y403000D03*
Y401000D03*
X322100Y409500D03*
Y407500D03*
Y405500D03*
Y403500D03*
X316900D03*
Y405500D03*
Y407500D03*
Y409500D03*
G54D136*
X273382Y148260D03*
Y155740D03*
X283618Y152000D03*
G54D137*
X264600Y157969D03*
Y156000D03*
Y154031D03*
X259400D03*
Y156000D03*
Y157969D03*
X250100D03*
Y156000D03*
Y154031D03*
X244900D03*
Y156000D03*
Y157969D03*
X0Y0D02*
M02*
