*
*
G04 PADS VX.2 Build Number: 5060570 generated Gerber (RS-274-X) file*
G04 PC Version=2.1*
*
%IN "Board2.pcb"*%
*
%MOIN*%
*
%FSLAX35Y35*%
*
*
*
*
G04 PC Standard Apertures*
*
*
G04 Thermal Relief Aperture macro.*
%AMTER*
1,1,$1,0,0*
1,0,$1-$2,0,0*
21,0,$3,$4,0,0,45*
21,0,$3,$4,0,0,135*
%
*
*
G04 Annular Aperture macro.*
%AMANN*
1,1,$1,0,0*
1,0,$2,0,0*
%
*
*
G04 Odd Aperture macro.*
%AMODD*
1,1,$1,0,0*
1,0,$1-0.005,0,0*
%
*
*
G04 PC Custom Aperture Macros*
*
*
*
*
*
*
G04 PC Aperture Table*
*
%ADD010C,0.001*%
%ADD011C,0.008*%
%ADD012C,0.006*%
%ADD013C,0.003*%
%ADD014C,0.00787*%
%ADD015C,0.01*%
%ADD016C,0.00984*%
*
*
*
*
G04 PC Circuitry*
G04 Layer Name Board2.pcb - circuitry*
%LPD*%
*
*
G04 PC Custom Flashes*
G04 Layer Name Board2.pcb - flashes*
%LPD*%
*
*
G04 PC Circuitry*
G04 Layer Name Board2.pcb - circuitry*
%LPD*%
*
G54D10*
G54D11*
G01X297500Y160500D02*
Y144500D01*
X290500*
Y160500*
X297500*
X321455Y433000D02*
X321591Y433375D01*
X321864Y433750*
X322136Y433937*
X322136D02*
X322682D01*
X322682D02*
X322955Y433750D01*
X323227Y433375*
X323364Y433000*
X323500Y432437*
X323500D02*
Y431500D01*
X323364Y430937*
X323364D02*
X323227Y430562D01*
X323227D02*
X322955Y430187D01*
X322955D02*
X322682Y430000D01*
X322136*
X321864Y430187*
X321864D02*
X321591Y430562D01*
X321591D02*
X321455Y430937D01*
X318318Y433937D02*
X319682Y430000D01*
X320227Y433937D02*
X318318D01*
X316955Y433000D02*
Y433187D01*
X316955D02*
X316818Y433562D01*
X316818D02*
X316682Y433750D01*
X316409Y433937*
X316409D02*
X315864D01*
X315864D02*
X315591Y433750D01*
X315455Y433562*
X315455D02*
X315318Y433187D01*
X315318D02*
Y432812D01*
X315318D02*
X315455Y432437D01*
X315455D02*
X315727Y431875D01*
X317091Y430000*
X315182*
X263955Y143500D02*
X264091Y143875D01*
X264364Y144250*
X264636Y144438*
X264636D02*
X265182D01*
X265182D02*
X265455Y144250D01*
X265727Y143875*
X265864Y143500*
X266000Y142938*
X266000D02*
Y142000D01*
X265864Y141438*
X265864D02*
X265727Y141063D01*
X265727D02*
X265455Y140688D01*
X265455D02*
X265182Y140500D01*
X264636*
X264364Y140688*
X264364D02*
X264091Y141063D01*
X264091D02*
X263955Y141438D01*
X261364Y144438D02*
X262727Y141813D01*
X262727D02*
X260682D01*
X261364Y144438D02*
Y140500D01*
X257545Y144438D02*
X258909Y140500D01*
X259455Y144438D02*
X257545D01*
X333000Y426955D02*
X332625Y427091D01*
X332250Y427364*
X332062Y427636*
X332062D02*
Y428182D01*
X332062D02*
X332250Y428455D01*
X332625Y428727*
X333000Y428864*
X333562Y429000*
X333562D02*
X334500D01*
X335062Y428864*
X335062D02*
X335437Y428727D01*
X335437D02*
X335812Y428455D01*
X335812D02*
X336000Y428182D01*
Y427636*
X335812Y427364*
X335812D02*
X335437Y427091D01*
X335437D02*
X335062Y426955D01*
X332062Y423818D02*
X336000Y425182D01*
X332062Y425727D02*
Y423818D01*
X332625Y420955D02*
X332250Y421091D01*
X332062Y421500*
X332062D02*
Y421773D01*
X332062D02*
X332250Y422182D01*
X332812Y422455*
X332812D02*
X333750Y422591D01*
X334687*
X334687D02*
X335437Y422455D01*
X335437D02*
X335812Y422182D01*
X335812D02*
X336000Y421773D01*
Y421636*
X335812Y421227*
X335812D02*
X335437Y420955D01*
X335437D02*
X334875Y420818D01*
X334687*
X334687D02*
X334125Y420955D01*
X333750Y421227*
X333562Y421636*
X333562D02*
Y421773D01*
X333562D02*
X333750Y422182D01*
X334125Y422455*
X334687Y422591*
X351000Y432455D02*
X350625Y432591D01*
X350250Y432864*
X350062Y433136*
X350062D02*
Y433682D01*
X350062D02*
X350250Y433955D01*
X350625Y434227*
X351000Y434364*
X351562Y434500*
X351562D02*
X352500D01*
X353062Y434364*
X353062D02*
X353437Y434227D01*
X353437D02*
X353812Y433955D01*
X353812D02*
X354000Y433682D01*
Y433136*
X353812Y432864*
X353812D02*
X353437Y432591D01*
X353437D02*
X353062Y432455D01*
X350062Y429318D02*
X354000Y430682D01*
X350062Y431227D02*
Y429318D01*
Y426318D02*
Y427682D01*
X350062D02*
X351750Y427818D01*
X351562Y427682*
X351562D02*
X351375Y427273D01*
Y426864*
X351562Y426455*
X351562D02*
X351937Y426182D01*
X351937D02*
X352500Y426045D01*
X352875Y426182*
X353437Y426318*
X353437D02*
X353812Y426591D01*
X353812D02*
X354000Y427000D01*
Y427409*
X353812Y427818*
X353812D02*
X353625Y427955D01*
X353250Y428091*
X237455Y130500D02*
X237591Y130875D01*
X237864Y131250*
X238136Y131438*
X238682*
X238955Y131250*
X239227Y130875*
X239364Y130500*
X239500Y129938*
Y129000*
X239364Y128438*
X239227Y128063*
X238955Y127688*
X238682Y127500*
X238136*
X237864Y127688*
X237591Y128063*
X237455Y128438*
X234591Y130875D02*
X234727Y131250D01*
X235136Y131438*
X235409*
X235818Y131250*
X236091Y130688*
X236227Y129750*
Y128813*
X236091Y128063*
X235818Y127688*
X235409Y127500*
X235273*
X234864Y127688*
X234591Y128063*
X234455Y128625*
Y128813*
X234591Y129375*
X234864Y129750*
X235273Y129938*
X235409*
X235818Y129750*
X236091Y129375*
X236227Y128813*
X232409Y131438D02*
X232818Y131250D01*
X233091Y130688*
X233227Y129750*
Y129188*
X233091Y128250*
X232818Y127688*
X232409Y127500*
X232136*
X231727Y127688*
X231455Y128250*
X231318Y129188*
Y129750*
X231455Y130688*
X231727Y131250*
X232136Y131438*
X232409*
X357500Y432455D02*
X357125Y432591D01*
X356750Y432864*
X356562Y433136*
X356562D02*
Y433682D01*
X356562D02*
X356750Y433955D01*
X357125Y434227*
X357500Y434364*
X358062Y434500*
X358062D02*
X359000D01*
X359562Y434364*
X359562D02*
X359937Y434227D01*
X359937D02*
X360312Y433955D01*
X360312D02*
X360500Y433682D01*
Y433136*
X360312Y432864*
X360312D02*
X359937Y432591D01*
X359937D02*
X359562Y432455D01*
X356562Y429318D02*
X360500Y430682D01*
X356562Y431227D02*
Y429318D01*
Y426727D02*
X359187Y428091D01*
X359187D02*
Y426045D01*
X356562Y426727D02*
X360500D01*
X365955Y401000D02*
X366091Y401375D01*
X366364Y401750*
X366636Y401938*
X366636D02*
X367182D01*
X367182D02*
X367455Y401750D01*
X367727Y401375*
X367864Y401000*
X368000Y400438*
X368000D02*
Y399500D01*
X367864Y398938*
X367864D02*
X367727Y398563D01*
X367727D02*
X367455Y398188D01*
X367455D02*
X367182Y398000D01*
X366636*
X366364Y398188*
X366364D02*
X366091Y398563D01*
X366091D02*
X365955Y398938D01*
X362818Y401938D02*
X364182Y398000D01*
X364727Y401938D02*
X362818D01*
X361318D02*
X359818D01*
X359818D02*
X360636Y400438D01*
X360636D02*
X360227D01*
X360227D02*
X359955Y400250D01*
X359818Y400063*
X359818D02*
X359682Y399500D01*
Y399125*
X359818Y398563*
X359818D02*
X360091Y398188D01*
X360091D02*
X360500Y398000D01*
X360909*
X361318Y398188*
X361318D02*
X361455Y398375D01*
X361591Y398750*
X237955Y148000D02*
X238091Y148375D01*
X238364Y148750*
X238636Y148938*
X239182*
X239455Y148750*
X239727Y148375*
X239864Y148000*
X240000Y147438*
Y146500*
X239864Y145938*
X239727Y145563*
X239455Y145188*
X239182Y145000*
X238636*
X238364Y145188*
X238091Y145563*
X237955Y145938*
X235364Y148938D02*
X236727Y146313D01*
X234682*
X235364Y148938D02*
Y145000D01*
X231818Y148375D02*
X231955Y148750D01*
X232364Y148938*
X232636*
X233045Y148750*
X233318Y148188*
X233455Y147250*
Y146313*
X233318Y145563*
X233045Y145188*
X232636Y145000*
X232500*
X232091Y145188*
X231818Y145563*
X231682Y146125*
Y146313*
X231818Y146875*
X232091Y147250*
X232500Y147438*
X232636*
X233045Y147250*
X233318Y146875*
X233455Y146313*
X304000Y163045D02*
X304375Y162909D01*
X304750Y162636*
X304938Y162364*
Y161818*
X304750Y161545*
X304375Y161273*
X304000Y161136*
X303438Y161000*
X302500*
X301938Y161136*
X301563Y161273*
X301188Y161545*
X301000Y161818*
Y162364*
X301188Y162636*
X301563Y162909*
X301938Y163045*
X304375Y165909D02*
X304750Y165773D01*
X304938Y165364*
Y165091*
X304750Y164682*
X304188Y164409*
X303250Y164273*
X302313*
X301563Y164409*
X301188Y164682*
X301000Y165091*
Y165227*
X301188Y165636*
X301563Y165909*
X302125Y166045*
X302313*
X302875Y165909*
X303250Y165636*
X303438Y165227*
Y165091*
X303250Y164682*
X302875Y164409*
X302313Y164273*
X304188Y167273D02*
X304375Y167545D01*
X304938Y167955*
X301000*
X321045Y535000D02*
X320909Y534625D01*
X320636Y534250*
X320364Y534063*
X320364D02*
X319818D01*
X319818D02*
X319545Y534250D01*
X319273Y534625*
X319136Y535000*
X319000Y535563*
X319000D02*
Y536500D01*
X319136Y537063*
X319136D02*
X319273Y537438D01*
X319273D02*
X319545Y537813D01*
X319545D02*
X319818Y538000D01*
X320364*
X320636Y537813*
X320636D02*
X320909Y537438D01*
X320909D02*
X321045Y537063D01*
X322955Y534063D02*
X322545Y534250D01*
X322409Y534625*
Y535000*
X322545Y535375*
X322818Y535563*
X322818D02*
X323364Y535750D01*
X323773Y535938*
X323773D02*
X324045Y536313D01*
X324045D02*
X324182Y536688D01*
X324182D02*
Y537250D01*
X324045Y537625*
X323909Y537813*
X323909D02*
X323500Y538000D01*
X322955*
X322545Y537813*
X322545D02*
X322409Y537625D01*
X322273Y537250*
Y536688*
X322273D02*
X322409Y536313D01*
X322409D02*
X322682Y535938D01*
X322682D02*
X323091Y535750D01*
X323636Y535563*
X323636D02*
X323909Y535375D01*
X324045Y535000*
Y534625*
X323909Y534250*
X323500Y534063*
X323500D02*
X322955D01*
X327045Y534625D02*
X326909Y534250D01*
X326500Y534063*
X326500D02*
X326227D01*
X326227D02*
X325818Y534250D01*
X325545Y534813*
X325545D02*
X325409Y535750D01*
Y536688*
X325409D02*
X325545Y537438D01*
X325545D02*
X325818Y537813D01*
X325818D02*
X326227Y538000D01*
X326364*
X326773Y537813*
X326773D02*
X327045Y537438D01*
X327045D02*
X327182Y536875D01*
Y536688*
X327182D02*
X327045Y536125D01*
X326773Y535750*
X326364Y535563*
X326364D02*
X326227D01*
X326227D02*
X325818Y535750D01*
X325545Y536125*
X325409Y536688*
X311955Y419500D02*
X312091Y419875D01*
X312364Y420250*
X312636Y420438*
X313182*
X313455Y420250*
X313727Y419875*
X313864Y419500*
X314000Y418938*
Y418000*
X313864Y417438*
X313727Y417063*
X313455Y416688*
X313182Y416500*
X312636*
X312364Y416688*
X312091Y417063*
X311955Y417438*
X310045Y420438D02*
X310455Y420250D01*
X310591Y419875*
Y419500*
X310455Y419125*
X310182Y418938*
X309636Y418750*
X309227Y418563*
X308955Y418188*
X308818Y417813*
Y417250*
X308955Y416875*
X309091Y416688*
X309500Y416500*
X310045*
X310455Y416688*
X310591Y416875*
X310727Y417250*
Y417813*
X310591Y418188*
X310318Y418563*
X309909Y418750*
X309364Y418938*
X309091Y419125*
X308955Y419500*
Y419875*
X309091Y420250*
X309500Y420438*
X310045*
X306773D02*
X307182Y420250D01*
X307455Y419688*
X307591Y418750*
Y418188*
X307455Y417250*
X307182Y416688*
X306773Y416500*
X306500*
X306091Y416688*
X305818Y417250*
X305682Y418188*
Y418750*
X305818Y419688*
X306091Y420250*
X306500Y420438*
X306773*
X364455Y409000D02*
X364591Y409375D01*
X364864Y409750*
X365136Y409938*
X365136D02*
X365682D01*
X365682D02*
X365955Y409750D01*
X366227Y409375*
X366364Y409000*
X366500Y408438*
X366500D02*
Y407500D01*
X366364Y406938*
X366364D02*
X366227Y406563D01*
X366227D02*
X365955Y406188D01*
X365955D02*
X365682Y406000D01*
X365136*
X364864Y406188*
X364864D02*
X364591Y406563D01*
X364591D02*
X364455Y406938D01*
X361318Y409938D02*
X362682Y406000D01*
X363227Y409938D02*
X361318D01*
X358318Y408625D02*
X358455Y408063D01*
X358455D02*
X358727Y407688D01*
X358727D02*
X359136Y407500D01*
X359273*
X359682Y407688*
X359682D02*
X359955Y408063D01*
X359955D02*
X360091Y408625D01*
Y408813*
X360091D02*
X359955Y409375D01*
X359682Y409750*
X359273Y409938*
X359273D02*
X359136D01*
X359136D02*
X358727Y409750D01*
X358455Y409375*
X358318Y408625*
Y407688*
X358318D02*
X358455Y406750D01*
X358727Y406188*
X358727D02*
X359136Y406000D01*
X359409*
X359818Y406188*
X359818D02*
X359955Y406563D01*
X335955Y398000D02*
X336091Y398375D01*
X336364Y398750*
X336636Y398938*
X336636D02*
X337182D01*
X337182D02*
X337455Y398750D01*
X337727Y398375*
X337864Y398000*
X338000Y397438*
X338000D02*
Y396500D01*
X337864Y395938*
X337864D02*
X337727Y395563D01*
X337727D02*
X337455Y395188D01*
X337455D02*
X337182Y395000D01*
X336636*
X336364Y395188*
X336364D02*
X336091Y395563D01*
X336091D02*
X335955Y395938D01*
X332818Y398938D02*
X334182Y395000D01*
X334727Y398938D02*
X332818D01*
X330909D02*
X331318Y398750D01*
X331455Y398375*
Y398000*
X331318Y397625*
X331045Y397438*
X331045D02*
X330500Y397250D01*
X330091Y397063*
X330091D02*
X329818Y396688D01*
X329818D02*
X329682Y396313D01*
X329682D02*
Y395750D01*
X329818Y395375*
X329955Y395188*
X329955D02*
X330364Y395000D01*
X330909*
X331318Y395188*
X331318D02*
X331455Y395375D01*
X331591Y395750*
Y396313*
X331591D02*
X331455Y396688D01*
X331455D02*
X331182Y397063D01*
X331182D02*
X330773Y397250D01*
X330227Y397438*
X330227D02*
X329955Y397625D01*
X329818Y398000*
Y398375*
X329955Y398750*
X330364Y398938*
X330364D02*
X330909D01*
X311455Y407000D02*
X311591Y407375D01*
X311864Y407750*
X312136Y407938*
X312136D02*
X312682D01*
X312682D02*
X312955Y407750D01*
X313227Y407375*
X313364Y407000*
X313500Y406438*
X313500D02*
Y405500D01*
X313364Y404938*
X313364D02*
X313227Y404563D01*
X313227D02*
X312955Y404188D01*
X312955D02*
X312682Y404000D01*
X312136*
X311864Y404188*
X311864D02*
X311591Y404563D01*
X311591D02*
X311455Y404938D01*
X309545Y407938D02*
X309955Y407750D01*
X310091Y407375*
Y407000*
X309955Y406625*
X309682Y406438*
X309682D02*
X309136Y406250D01*
X308727Y406063*
X308727D02*
X308455Y405688D01*
X308455D02*
X308318Y405313D01*
X308318D02*
Y404750D01*
X308455Y404375*
X308591Y404188*
X308591D02*
X309000Y404000D01*
X309545*
X309955Y404188*
X309955D02*
X310091Y404375D01*
X310227Y404750*
Y405313*
X310227D02*
X310091Y405688D01*
X310091D02*
X309818Y406063D01*
X309818D02*
X309409Y406250D01*
X308864Y406438*
X308864D02*
X308591Y406625D01*
X308455Y407000*
Y407375*
X308591Y407750*
X309000Y407938*
X309000D02*
X309545D01*
X307091Y407188D02*
X306818Y407375D01*
X306409Y407938*
X306409D02*
Y404000D01*
X282000Y164938D02*
Y162125D01*
X281864Y161563*
X281864D02*
X281591Y161188D01*
X281591D02*
X281182Y161000D01*
X280909*
X280500Y161188*
X280500D02*
X280227Y161563D01*
X280227D02*
X280091Y162125D01*
Y164938*
X278591D02*
X277091D01*
X277091D02*
X277909Y163438D01*
X277909D02*
X277500D01*
X277500D02*
X277227Y163250D01*
X277091Y163063*
X277091D02*
X276955Y162500D01*
Y162125*
X277091Y161563*
X277091D02*
X277364Y161188D01*
X277364D02*
X277773Y161000D01*
X278182*
X278591Y161188*
X278591D02*
X278727Y161375D01*
X278864Y161750*
X275727Y164188D02*
X275455Y164375D01*
X275045Y164938*
X275045D02*
Y161000D01*
X266000Y166938D02*
Y164125D01*
X265864Y163563*
X265864D02*
X265591Y163188D01*
X265591D02*
X265182Y163000D01*
X264909*
X264500Y163188*
X264500D02*
X264227Y163563D01*
X264227D02*
X264091Y164125D01*
Y166938*
X262591D02*
X261091D01*
X261091D02*
X261909Y165438D01*
X261909D02*
X261500D01*
X261500D02*
X261227Y165250D01*
X261091Y165063*
X261091D02*
X260955Y164500D01*
Y164125*
X261091Y163563*
X261091D02*
X261364Y163188D01*
X261364D02*
X261773Y163000D01*
X262182*
X262591Y163188*
X262591D02*
X262727Y163375D01*
X262864Y163750*
X259591Y166000D02*
Y166188D01*
X259591D02*
X259455Y166563D01*
X259455D02*
X259318Y166750D01*
X259045Y166938*
X259045D02*
X258500D01*
X258500D02*
X258227Y166750D01*
X258091Y166563*
X258091D02*
X257955Y166188D01*
X257955D02*
Y165813D01*
X257955D02*
X258091Y165438D01*
X258091D02*
X258364Y164875D01*
X259727Y163000*
X257818*
X251000Y166938D02*
Y164125D01*
X250864Y163563*
X250864D02*
X250591Y163188D01*
X250591D02*
X250182Y163000D01*
X249909*
X249500Y163188*
X249500D02*
X249227Y163563D01*
X249227D02*
X249091Y164125D01*
Y166938*
X247591D02*
X246091D01*
X246091D02*
X246909Y165438D01*
X246909D02*
X246500D01*
X246500D02*
X246227Y165250D01*
X246091Y165063*
X246091D02*
X245955Y164500D01*
Y164125*
X246091Y163563*
X246091D02*
X246364Y163188D01*
X246364D02*
X246773Y163000D01*
X247182*
X247591Y163188*
X247591D02*
X247727Y163375D01*
X247864Y163750*
X244455Y166938D02*
X242955D01*
X242955D02*
X243773Y165438D01*
X243773D02*
X243364D01*
X243364D02*
X243091Y165250D01*
X242955Y165063*
X242955D02*
X242818Y164500D01*
Y164125*
X242955Y163563*
X242955D02*
X243227Y163188D01*
X243227D02*
X243636Y163000D01*
X244045*
X244455Y163188*
X244455D02*
X244591Y163375D01*
X244727Y163750*
X295938Y162000D02*
X292000D01*
X295938D02*
Y163227D01*
X295750Y163636*
X295563Y163773*
X295188Y163909*
X294813*
X294438Y163773*
X294250Y163636*
X294063Y163227*
Y162000*
Y162955D02*
X292000Y163909D01*
X295000Y165273D02*
X295188D01*
X295563Y165409*
X295750Y165545*
X295938Y165818*
Y166364*
X295750Y166636*
X295563Y166773*
X295188Y166909*
X294813*
X294438Y166773*
X293875Y166500*
X292000Y165136*
Y167045*
X295938Y169091D02*
X295750Y168682D01*
X295188Y168409*
X294250Y168273*
X293688*
X292750Y168409*
X292188Y168682*
X292000Y169091*
Y169364*
X292188Y169773*
X292750Y170045*
X293688Y170182*
X294250*
X295188Y170045*
X295750Y169773*
X295938Y169364*
Y169091*
Y172091D02*
X295750Y171682D01*
X295375Y171545*
X295000*
X294625Y171682*
X294438Y171955*
X294250Y172500*
X294063Y172909*
X293688Y173182*
X293313Y173318*
X292750*
X292375Y173182*
X292188Y173045*
X292000Y172636*
Y172091*
X292188Y171682*
X292375Y171545*
X292750Y171409*
X293313*
X293688Y171545*
X294063Y171818*
X294250Y172227*
X294438Y172773*
X294625Y173045*
X295000Y173182*
X295375*
X295750Y173045*
X295938Y172636*
Y172091*
G54D12*
X265050Y152150D02*
X258950D01*
Y159850D02*
X265050D01*
X250550Y152150D02*
X244450D01*
Y159850D02*
X250550D01*
G54D13*
X265977Y161906D02*
Y160031D01*
X266545Y161437D02*
X265409Y160500D01*
Y161437D02*
X266545Y160500D01*
X251477Y161906D02*
Y160031D01*
X252045Y161437D02*
X250909Y160500D01*
Y161437D02*
X252045Y160500D01*
G54D14*
X319378Y414500D02*
X319485D01*
Y415000*
X319515*
Y414500*
X319622*
Y422500*
X319378*
Y414500*
X353122Y411000D02*
X353015D01*
Y410500*
X352985*
Y411000*
X352878*
Y403000*
X353122*
Y411000*
X333878Y400000D02*
X333985D01*
Y400500*
X334015*
Y400000*
X334122*
Y408000*
X333878*
Y400000*
X319622Y410500D02*
X319515D01*
Y410000*
X319485*
Y410500*
X319378*
Y402500*
X319622*
Y410500*
X276827Y157709D02*
X280173D01*
Y146291*
X276827*
Y157709*
G54D15*
X100000Y100000D02*
Y825000D01*
X455000*
Y100000*
X100000*
G54D16*
X272693Y144913D02*
G75*
G03X272693I-492J0D01*
G74*
G01X0Y0D02*
M02*
