*
*
G04 PADS VX.2 Build Number: 5060570 generated Gerber (RS-274-X) file*
G04 PC Version=2.1*
*
%IN "Board2.pcb"*%
*
%MOIN*%
*
%FSLAX35Y35*%
*
*
*
*
G04 PC Standard Apertures*
*
*
G04 Thermal Relief Aperture macro.*
%AMTER*
1,1,$1,0,0*
1,0,$1-$2,0,0*
21,0,$3,$4,0,0,45*
21,0,$3,$4,0,0,135*
%
*
*
G04 Annular Aperture macro.*
%AMANN*
1,1,$1,0,0*
1,0,$2,0,0*
%
*
*
G04 Odd Aperture macro.*
%AMODD*
1,1,$1,0,0*
1,0,$1-0.005,0,0*
%
*
*
G04 PC Custom Aperture Macros*
*
*
*
*
*
*
G04 PC Aperture Table*
*
%ADD010C,0.001*%
%ADD015C,0.01*%
%ADD053R,0.03937X0.0374*%
%ADD055R,0.0374X0.03937*%
%ADD067R,0.0473X0.056*%
%ADD135R,0.022X0.012*%
%ADD136R,0.04331X0.02559*%
%ADD137R,0.043X0.01*%
*
*
*
*
G04 PC Circuitry*
G04 Layer Name Board2.pcb - circuitry*
%LPD*%
*
*
G04 PC Custom Flashes*
G04 Layer Name Board2.pcb - flashes*
%LPD*%
*
*
G04 PC Circuitry*
G04 Layer Name Board2.pcb - circuitry*
%LPD*%
*
G54D10*
G54D15*
G01X100000Y100000D02*
Y825000D01*
X455000*
Y100000*
X100000*
G54D53*
X334000Y417150D03*
Y410850D03*
X351500Y422650D03*
Y416350D03*
X358000Y422650D03*
Y416350D03*
X302500Y157150D03*
Y150850D03*
G54D55*
X316350Y426500D03*
X322650D03*
X244350Y147000D03*
X250650D03*
X243350Y129500D03*
X249650D03*
X349850Y400000D03*
X356150D03*
X259350Y147000D03*
X265650D03*
X326150Y542000D03*
X319850D03*
G54D67*
X294000Y157200D03*
Y147800D03*
G54D135*
X316900Y415500D03*
Y417500D03*
Y419500D03*
Y421500D03*
X322100D03*
Y419500D03*
Y417500D03*
Y415500D03*
X355600Y410000D03*
Y408000D03*
Y406000D03*
Y404000D03*
X350400D03*
Y406000D03*
Y408000D03*
Y410000D03*
X331400Y401000D03*
Y403000D03*
Y405000D03*
Y407000D03*
X336600D03*
Y405000D03*
Y403000D03*
Y401000D03*
X322100Y409500D03*
Y407500D03*
Y405500D03*
Y403500D03*
X316900D03*
Y405500D03*
Y407500D03*
Y409500D03*
G54D136*
X273382Y148260D03*
Y155740D03*
X283618Y152000D03*
G54D137*
X264600Y157969D03*
Y156000D03*
Y154031D03*
X259400D03*
Y156000D03*
Y157969D03*
X250100D03*
Y156000D03*
Y154031D03*
X244900D03*
Y156000D03*
Y157969D03*
X0Y0D02*
M02*
