*
*
G04 PADS VX.2 Build Number: 5060570 generated Gerber (RS-274-X) file*
G04 PC Version=2.1*
*
%IN "Board2.pcb"*%
*
%MOIN*%
*
%FSLAX35Y35*%
*
*
*
*
G04 PC Standard Apertures*
*
*
G04 Thermal Relief Aperture macro.*
%AMTER*
1,1,$1,0,0*
1,0,$1-$2,0,0*
21,0,$3,$4,0,0,45*
21,0,$3,$4,0,0,135*
%
*
*
G04 Annular Aperture macro.*
%AMANN*
1,1,$1,0,0*
1,0,$2,0,0*
%
*
*
G04 Odd Aperture macro.*
%AMODD*
1,1,$1,0,0*
1,0,$1-0.005,0,0*
%
*
*
G04 PC Custom Aperture Macros*
*
*
*
*
*
*
G04 PC Aperture Table*
*
%ADD010C,0.001*%
%ADD015C,0.01*%
%ADD019R,0.04937X0.0474*%
%ADD021R,0.0474X0.04937*%
%ADD025C,0.51*%
%ADD036C,0.07*%
%ADD037C,0.166*%
%ADD038R,0.0573X0.066*%
%ADD041C,0.135*%
%ADD100C,0.36433*%
%ADD101C,0.056*%
%ADD102C,0.066*%
%ADD113C,0.069*%
%ADD114C,0.075*%
%ADD138R,0.032X0.022*%
%ADD139R,0.05331X0.03559*%
%ADD140R,0.053X0.02*%
*
*
*
*
G04 PC Circuitry*
G04 Layer Name Board2.pcb - circuitry*
%LPD*%
*
*
G04 PC Custom Flashes*
G04 Layer Name Board2.pcb - flashes*
%LPD*%
*
*
G04 PC Circuitry*
G04 Layer Name Board2.pcb - circuitry*
%LPD*%
*
G54D10*
G54D15*
G01X100000Y100000D02*
Y825000D01*
X455000*
Y100000*
X100000*
G54D19*
X334000Y417150D03*
Y410850D03*
X351500Y422650D03*
Y416350D03*
X358000Y422650D03*
Y416350D03*
X302500Y157150D03*
Y150850D03*
G54D21*
X316350Y426500D03*
X322650D03*
X244350Y147000D03*
X250650D03*
X243350Y129500D03*
X249650D03*
X349850Y400000D03*
X356150D03*
X259350Y147000D03*
X265650D03*
X326150Y542000D03*
X319850D03*
G54D25*
X417500Y312500D03*
Y550500D03*
G54D36*
X354500Y471000D03*
Y463000D03*
Y455500D03*
G54D37*
X438750Y451250D02*
X438850D01*
Y435350*
X438750*
Y451250*
Y448600D02*
X438850D01*
X438750Y490650D02*
X438850D01*
Y474750*
X438750*
Y490650*
Y481800D02*
X438850D01*
G54D38*
X294000Y157200D03*
Y147800D03*
G54D41*
X120000Y797500D03*
X430000Y125000D03*
Y797500D03*
X120000Y125000D03*
G54D100*
X417500Y233500D03*
G54D101*
X128000Y416000D03*
X135500D03*
X128000Y411000D03*
X135500D03*
X128000Y406000D03*
X135500D03*
X128000Y401000D03*
X135500D03*
X128000Y396000D03*
X135500D03*
X128000Y391000D03*
X135500D03*
X128000Y386000D03*
X135500D03*
X128000Y381000D03*
X135500D03*
X128000Y376000D03*
X135500D03*
X128000Y371000D03*
X135500D03*
X128000Y366000D03*
X135500D03*
X128000Y361000D03*
X135500D03*
X128000Y356000D03*
X135500D03*
X128000Y351000D03*
X135500D03*
X128000Y346000D03*
X135500D03*
X426500Y670000D03*
X419000D03*
X426500Y675000D03*
X419000D03*
X426500Y680000D03*
X419000D03*
X426500Y685000D03*
X419000D03*
X426500Y690000D03*
X419000D03*
X426500Y726500D03*
X419000D03*
X426500Y731500D03*
X419000D03*
X426500Y736500D03*
X419000D03*
X426500Y741500D03*
X419000D03*
X426500Y746500D03*
X419000D03*
X426500Y751500D03*
X419000D03*
X426500Y756500D03*
X419000D03*
X426500Y761500D03*
X419000D03*
X426500Y766500D03*
X419000D03*
X426500Y771500D03*
X419000D03*
X434500Y199000D03*
X429500D03*
G54D102*
X109400Y426200D03*
X118300D03*
X109400Y335800D03*
X118300D03*
X445100Y659800D03*
X436200D03*
X445100Y700200D03*
X436200D03*
X445100Y716300D03*
X436200D03*
X445100Y781700D03*
X436200D03*
G54D113*
X444700Y199000D03*
X419300D03*
G54D114*
X263500Y138000D03*
X253500D03*
X243500D03*
X233500D03*
Y108000D03*
X263500D03*
X303500Y138000D03*
X293500D03*
X283500D03*
X273500D03*
Y108000D03*
X303500D03*
G54D138*
X316900Y415500D03*
Y417500D03*
Y419500D03*
Y421500D03*
X322100D03*
Y419500D03*
Y417500D03*
Y415500D03*
X355600Y410000D03*
Y408000D03*
Y406000D03*
Y404000D03*
X350400D03*
Y406000D03*
Y408000D03*
Y410000D03*
X331400Y401000D03*
Y403000D03*
Y405000D03*
Y407000D03*
X336600D03*
Y405000D03*
Y403000D03*
Y401000D03*
X322100Y409500D03*
Y407500D03*
Y405500D03*
Y403500D03*
X316900D03*
Y405500D03*
Y407500D03*
Y409500D03*
G54D139*
X273382Y148260D03*
Y155740D03*
X283618Y152000D03*
G54D140*
X264600Y157969D03*
Y156000D03*
Y154031D03*
X259400D03*
Y156000D03*
Y157969D03*
X250100D03*
Y156000D03*
Y154031D03*
X244900D03*
Y156000D03*
Y157969D03*
X0Y0D02*
M02*
