M48
;FILE_FORMAT=2:4
INCH,LZ
FMAT,2
ICI,OFF
;TYPE=PLATED
T1C.005
T2C.01
T3C.025
T4C.032
T5C.035
T6C.04
T7C.078
T9C.197
;TYPE=NON_PLATED
T8C.15
%
M72
G90
G93X0Y0
T1C.005F0S0
X0134Y0151
X0165Y0121
X021025Y0123
X02155Y0133
X021825Y015
X0226Y0121
X0245Y0152
X025Y0152
X02558Y01542
X0269Y0147
X0277Y01485
X0311Y0154
X032Y0119
X03265Y0115
X03265Y01085
X0351Y0115
X0359Y0105
X0373Y01215
X0397Y01185
X041Y0128
X0412Y01425
X04455Y015
X04005Y0191
X03965Y0193
X0394Y01862
X03855Y01959
X0384Y0184
X0382Y0193
X03575Y0194
X035Y01915
X03454Y01988
X03113Y0157
X02595Y016
X0254Y0157
X021825Y016
X021825Y0181
X021825Y019
X01365Y018
X01295Y021
X021825Y0211
X021825Y0221
X03403Y02282
X03462Y021715
X03462Y021215
X03488Y02226
X03512Y021715
X03527Y02255
X03545Y02155
X03581Y02255
X03798Y02245
X03934Y02084
X03934Y02184
X03934Y02284
X04034Y02184
X04034Y02084
X04134Y02084
X04234Y02084
X04334Y02084
X04334Y02184
X04434Y02084
X04434Y02284
X04434Y02184
X04434Y02484
X04434Y02384
X04334Y02484
X04034Y02484
X03934Y02484
X03934Y02384
X03835Y02505
X03675Y02415
X0367Y0252
X034725Y0234
X033325Y0231
X03315Y0238
X0325Y0245
X0276Y02535
X0264Y0244
X021825Y0241
X021825Y0251
X0139Y0238
X01245Y027
X021825Y027
X02455Y02705
X0258Y0257
X0259Y02695
X02605Y0274
X026325Y0264
X027925Y0264
X028725Y0264
X029525Y0264
X03025Y0271
X031225Y026
X03695Y027
X0375Y0262
X0382Y02645
X03843Y02735
X03909Y02734
X03909Y02634
X03934Y02584
X04009Y02634
X04034Y02584
X04109Y02634
X04109Y02734
X04134Y02584
X04234Y02584
X04334Y02584
X04434Y02584
X04409Y02934
X04109Y02834
X04009Y02834
X03909Y02934
X03909Y02834
X03909Y03034
X03555Y02885
X0344Y02945
X032025Y0281
X0292Y02985
X027525Y0299
X027125Y0301
X0243Y0297
X02425Y0294
X021825Y0301
X021825Y028
X0143Y03
X0132Y0328
X021825Y0312
X02205Y0308
X02661Y0319
X027465Y03094
X028725Y0325
X028725Y0309
X028825Y0321
X030123Y03105
X030623Y03205
X030623Y03155
X030623Y03105
X030623Y03055
X030825Y0318
X031Y0328
X033Y03215
X0347Y03235
X03655Y0327
X0377Y0313
X03792Y03185
X03909Y03134
X03909Y03234
X04409Y03434
X04409Y03334
X04309Y03434
X04209Y03434
X04109Y03434
X04009Y03434
X03909Y03434
X03909Y03334
X03765Y0349
X03655Y0332
X0363Y0346
X03606Y03488
X03585Y0349
X033825Y0354
X031125Y0335
X0297Y0339
X0295Y0337
X02825Y0348
X02765Y0338
X0276Y03338
X02741Y03352
X027Y033
X021825Y033
X021825Y0341
X01685Y0339
X01455Y03325
X0116Y034
X01455Y03835
X021725Y0401
X021825Y0362
X021825Y0372
X021825Y0391
X0245Y0366
X02775Y0378
X02865Y03845
X0288Y0386
X0292Y0363
X0294Y03795
X0296Y0382
X03035Y03815
X031Y0356
X031125Y0365
X0313Y0392
X03188Y03878
X032Y039
X03201Y04004
X0322Y04015
X0322Y03995
X03235Y03925
X0325Y03885
X03256Y04035
X03339Y03929
X03348Y03876
X03355Y0394
X03365Y03765
X0342Y0395
X03425Y0385
X03451Y04031
X035Y0393
X03555Y0385
X0357Y0396
X0361Y03675
X0376Y03905
X03785Y0382
X038Y0389
X0381Y0378
X03815Y03805
X0382Y0375
X03919Y04014
X03919Y03914
X03919Y03814
X04014Y04014
X04114Y03814
X04114Y04014
X04114Y03914
X04214Y04014
X04314Y04014
X04414Y04014
X04414Y04214
X04414Y04114
X04314Y04214
X04314Y04114
X04214Y04214
X04214Y04114
X04114Y04214
X04114Y04114
X04014Y04214
X04014Y04114
X03919Y04114
X03914Y04214
X036Y0407
X0357Y0413
X0355Y0413
X0354Y04279
X0353Y04095
X034756Y040691
X03475Y04255
X03463Y0424
X03461Y04269
X03435Y04216
X03435Y04235
X03425Y0415
X0342Y0406
X03416Y04105
X03415Y04215
X034Y04086
X03395Y0421
X03374Y04191
X0332Y04265
X033Y04225
X03285Y04195
X03275Y04065
X03274Y041
X03265Y0416
X0326Y04185
X0323Y04115
X03128Y0415
X03095Y0425
X03Y04215
X02985Y04155
X0298Y0412
X021725Y042
X0148Y0406
X021725Y043
X021725Y0451
X0274Y04445
X0313Y0434
X032Y0433
X03225Y0443
X03295Y0443
X03311Y0435
X0335Y04353
X03415Y04335
X03455Y0433
X0348Y04345
X03519Y04489
X0353Y04325
X0354Y0435
X0356Y0448
X03914Y04314
X03918Y04514
X03918Y04414
X04014Y04314
X04014Y04414
X04014Y04514
X04114Y04514
X04114Y04314
X04114Y04414
X04214Y04314
X04214Y04414
X04214Y04514
X04218Y04768
X04218Y04968
X04218Y04868
X04118Y04768
X04118Y04668
X04118Y04968
X04118Y04868
X04018Y04668
X04018Y04768
X04018Y04968
X04018Y04868
X03925Y04768
X03925Y04668
X03925Y04968
X03925Y04868
X03695Y04725
X03575Y048
X03555Y0492
X03426Y0491
X02605Y04985
X022725Y0492
X021925Y05
X021725Y0461
X020825Y0492
X018225Y0491
X0143Y0459
X0132Y0492
X01394Y0512
X021925Y0518
X021925Y0528
X027775Y0522
X03426Y05165
X03455Y0526
X03555Y0505
X03925Y05268
X03925Y05168
X03925Y05068
X04018Y05168
X04018Y05068
X04018Y05268
X04118Y05168
X04118Y05068
X04218Y05168
X04218Y05068
X04318Y05068
X04318Y05168
X04418Y05168
X04418Y05068
X04418Y05268
X04418Y05768
X04418Y05668
X04318Y05768
X04018Y05768
X03925Y05368
X03918Y05668
X03908Y05768
X03455Y0535
X0344Y0538
X0329Y05625
X0329Y0545
X0329Y0533
X0318Y0538
X021925Y0578
X021925Y0559
X021925Y0549
X01394Y05735
X01245Y05435
X01295Y06035
X021925Y0588
X021925Y0618
X021925Y0608
X03206Y06225
X03435Y06225
X036Y0623
X03605Y06155
X0361Y0626
X0361Y0599
X0377Y0614
X03785Y06035
X0386Y05965
X04245Y06155
X0426Y05965
X03845Y06455
X03815Y06485
X03715Y06695
X030575Y06785
X030575Y06745
X030575Y0671
X030175Y06745
X030175Y0671
X030175Y06785
X027625Y0657
X027625Y0653
X027325Y0676
X027025Y0663
X027025Y0667
X027025Y0671
X025625Y0653
X025525Y0657
X021925Y0649
X021925Y0639
X021925Y0668
X021925Y0678
X0148Y0632
X01315Y06635
X0138Y06935
X026825Y0681
X026825Y0685
X027125Y0688
X0272Y06845
X028425Y0693
X028625Y0686
X028825Y0693
X030175Y06835
X030575Y06835
X030825Y0699
X0312Y0681
X0312Y0702
X03572Y06979
X0359Y06995
X03605Y06825
X03715Y068
X03735Y0692
X0447Y0682
X0429Y07195
X0409Y0726
X0407Y07375
X04015Y07435
X0396Y0726
X0379Y07195
X03755Y0736
X03755Y0707
X0374Y0727
X0306Y073
X0297Y0735
X0246Y0742
X0221Y07385
X0219Y07315
X0134Y07235
X0134Y0753
X02575Y0771
X027125Y0769
X027925Y0769
X028725Y0769
X028725Y0787
X029525Y0769
X030325Y0769
X03205Y08
X03235Y07715
X03281Y08
X033Y0797
X03305Y08
X03385Y0773
X0341Y0798
X0343Y08005
X03555Y07715
X0356Y07734
X03855Y0764
X0397Y0786
X04015Y07585
X04116Y07829
X0412Y07805
X04415Y0793
X0442Y0796
X03315Y0811
T2C.01F095S3
X025505Y017214
X025505Y016214
X026505Y017214
X026505Y016214
X027505Y016214
X028505Y016214
X029505Y016214
X030505Y016214
X031505Y013214
X031505Y016214
X031505Y014214
X031505Y015214
X032136Y01728
X032136Y01228
X032505Y019214
X021925Y0699
X021925Y0708
T3C.025F197S55
X04295Y0199
X04345Y0199
X01355Y0351
X01355Y0346
X01355Y0376
X01355Y0371
X01355Y0366
X01355Y0361
X01355Y0356
X0128Y0351
X0128Y0366
X0128Y0376
X0128Y0361
X0128Y0346
X0128Y0356
X0128Y0371
X0128Y0401
X0128Y0396
X0128Y0391
X0128Y0386
X0128Y0381
X0128Y0411
X0128Y0406
X0128Y0416
X01355Y0401
X01355Y0381
X01355Y0391
X01355Y0411
X01355Y0396
X01355Y0406
X01355Y0386
X01355Y0416
X04265Y0675
X04265Y067
X0419Y0675
X0419Y067
X0419Y0685
X0419Y069
X0419Y068
X0419Y07265
X04265Y068
X04265Y069
X04265Y07265
X04265Y0685
X04265Y07365
X04265Y07415
X04265Y07465
X04265Y07515
X04265Y07315
X04265Y07615
X04265Y07665
X04265Y07715
X04265Y07565
X0419Y07315
X0419Y07465
X0419Y07615
X0419Y07415
X0419Y07665
X0419Y07515
X0419Y07715
X0419Y07365
X0419Y07565
T4C.032F197S55
X01094Y03358
X01183Y03358
X01183Y04262
X01094Y04262
X04362Y06598
X04362Y07002
X04451Y07002
X04451Y06598
X04451Y07163
X04451Y07817
X04362Y07163
X04362Y07817
T5C.035F197S55
X04193Y0199
X04447Y0199
X03545Y04555
X03545Y0471
X03545Y0463
T6C.04F139S55
X02335Y0108
X02335Y0138
X02435Y0138
X02535Y0138
X02635Y0138
X02635Y0108
X02735Y0138
X02735Y0108
X02835Y0138
X02935Y0138
X03035Y0138
X03035Y0108
T7C.078F081S55
X04388Y04512G85X04388Y04354
X04388Y04906G85X04388Y04748
T8C.15F035S9
X012Y0125
X043Y0125
X043Y07975
X012Y07975
T9C.197F035S1033
X04175Y02335
X04175Y03125
X04175Y05505
M30
