*
*
G04 PADS VX.2 Build Number: 5060570 generated Gerber (RS-274-X) file*
G04 PC Version=2.1*
*
%IN "Board2.pcb"*%
*
%MOIN*%
*
%FSLAX35Y35*%
*
*
*
*
G04 PC Standard Apertures*
*
*
G04 Thermal Relief Aperture macro.*
%AMTER*
1,1,$1,0,0*
1,0,$1-$2,0,0*
21,0,$3,$4,0,0,45*
21,0,$3,$4,0,0,135*
%
*
*
G04 Annular Aperture macro.*
%AMANN*
1,1,$1,0,0*
1,0,$2,0,0*
%
*
*
G04 Odd Aperture macro.*
%AMODD*
1,1,$1,0,0*
1,0,$1-0.005,0,0*
%
*
*
G04 PC Custom Aperture Macros*
*
*
*
*
*
*
G04 PC Aperture Table*
*
%ADD010C,0.001*%
%ADD015C,0.01*%
%ADD016C,0.00984*%
%ADD053R,0.03937X0.0374*%
%ADD054R,0.05512X0.00984*%
%ADD055R,0.0374X0.03937*%
%ADD056R,0.064X0.086*%
%ADD057R,0.024X0.044*%
%ADD058R,0.135X0.128*%
%ADD059R,0.063X0.035*%
%ADD060R,0.063X0.124*%
%ADD061R,0.03X0.065*%
%ADD062R,0.0118X0.035*%
%ADD063R,0.112X0.065*%
%ADD065R,0.04724X0.20276*%
%ADD067R,0.0473X0.056*%
%ADD069R,0.052X0.022*%
%ADD070R,0.045X0.022*%
%ADD071R,0.138X0.402*%
%ADD072R,0.0255X0.0649*%
%ADD073O,0.0255X0.0649*%
%ADD074R,0.0315X0.0315*%
%ADD075R,0.05X0.13*%
%ADD076R,0.063X0.036*%
%ADD116R,0.128X0.135*%
%ADD117R,0.02175X0.06693*%
%ADD118R,0.03937X0.1063*%
%ADD119R,0.04724X0.05512*%
%ADD120R,0.08661X0.02362*%
%ADD121R,0.08661X0.1378*%
%ADD122R,0.0649X0.0255*%
%ADD123O,0.0649X0.0255*%
%ADD124R,0.02559X0.04331*%
%ADD125C,0.01043*%
%ADD126R,0.066X0.014*%
*
*
*
*
G04 PC Circuitry*
G04 Layer Name Board2.pcb - circuitry*
%LPD*%
*
*
G04 PC Custom Flashes*
G04 Layer Name Board2.pcb - flashes*
%LPD*%
*
*
G04 PC Circuitry*
G04 Layer Name Board2.pcb - circuitry*
%LPD*%
*
G54D10*
G54D15*
G01X100000Y100000D02*
Y825000D01*
X455000*
Y100000*
X100000*
G54D16*
X316283Y430717D03*
X318252D03*
X322189D03*
X324157D03*
X328094D03*
X330063D03*
X334000D03*
X335969D03*
X339906D03*
X341874D03*
X345811D03*
X347780D03*
X349748D03*
X351717D03*
X316283Y428748D03*
X318252D03*
X320220D03*
X322189D03*
X324157D03*
X326126D03*
X328094D03*
X330063D03*
X332031D03*
X334000D03*
X335969D03*
X337937D03*
X339906D03*
X341874D03*
X343843D03*
X345811D03*
X347780D03*
X349748D03*
X351717D03*
X316283Y426780D03*
X318252D03*
X324157D03*
X326126D03*
X330063D03*
X334000D03*
X337937D03*
X341874D03*
X343843D03*
X349748D03*
X316283Y424811D03*
X318252D03*
X326126D03*
X328094D03*
X330063D03*
X337937D03*
X339906D03*
X341874D03*
X349748D03*
X351717D03*
X318252Y422843D03*
X320220D03*
X328094D03*
X334000D03*
X339906D03*
X347780D03*
X349748D03*
X351717D03*
X316283Y420874D03*
X318252D03*
X320220D03*
X322189D03*
X334000D03*
X345811D03*
X347780D03*
X349748D03*
X316283Y418906D03*
X318252D03*
X322189D03*
X324157D03*
X334000D03*
X343843D03*
X345811D03*
X349748D03*
X351717D03*
X318252Y416937D03*
X320220D03*
X322189D03*
X332031D03*
X334000D03*
X335969D03*
X337937D03*
X345811D03*
X347780D03*
X349748D03*
X351717D03*
X316283Y414969D03*
X318252D03*
X330063D03*
X332031D03*
X334000D03*
X335969D03*
X337937D03*
X349748D03*
X316283Y413000D03*
X318252D03*
X320220D03*
X324157D03*
X326126D03*
X328094D03*
X330063D03*
X332031D03*
X334000D03*
X335969D03*
X337937D03*
X339906D03*
X341874D03*
X343843D03*
X347780D03*
X349748D03*
X351717D03*
X318252Y411031D03*
X330063D03*
X332031D03*
X334000D03*
X335969D03*
X337937D03*
X349748D03*
X351717D03*
X316283Y409063D03*
X318252D03*
X320220D03*
X322189D03*
X330063D03*
X332031D03*
X334000D03*
X335969D03*
X337937D03*
X345811D03*
X347780D03*
X349748D03*
X316283Y407094D03*
X318252D03*
X322189D03*
X324157D03*
X334000D03*
X343843D03*
X345811D03*
X349748D03*
X351717D03*
X318252Y405126D03*
X320220D03*
X322189D03*
X334000D03*
X345811D03*
X347780D03*
X349748D03*
X351717D03*
X316283Y403157D03*
X318252D03*
X320220D03*
X328094D03*
X334000D03*
X339906D03*
X347780D03*
X349748D03*
X316283Y401189D03*
X318252D03*
X326126D03*
X328094D03*
X330063D03*
X337937D03*
X339906D03*
X341874D03*
X349748D03*
X351717D03*
X318252Y399220D03*
X324157D03*
X326126D03*
X330063D03*
X334000D03*
X337937D03*
X341874D03*
X343843D03*
X349748D03*
X351717D03*
X316283Y397252D03*
X318252D03*
X320220D03*
X322189D03*
X324157D03*
X326126D03*
X328094D03*
X330063D03*
X332031D03*
X334000D03*
X335969D03*
X337937D03*
X339906D03*
X341874D03*
X343843D03*
X345811D03*
X347780D03*
X349748D03*
X351717D03*
X316283Y395283D03*
X318252D03*
X320220D03*
X322189D03*
X326126D03*
X328094D03*
X332031D03*
X334000D03*
X337937D03*
X339906D03*
X343843D03*
X345811D03*
X349748D03*
X351717D03*
G54D53*
X367250Y231850D03*
Y238150D03*
X219000Y751650D03*
Y745350D03*
X218250Y174150D03*
Y167850D03*
X217250Y443150D03*
Y436850D03*
X355500Y501650D03*
Y495350D03*
X218250Y234150D03*
Y227850D03*
Y354150D03*
Y347850D03*
X255250Y183150D03*
Y176850D03*
X217250Y473150D03*
Y466850D03*
Y413150D03*
Y406850D03*
X219250Y511150D03*
Y504850D03*
X277750Y510850D03*
Y517150D03*
X263250Y183150D03*
Y176850D03*
X277750Y534150D03*
Y527850D03*
X219250Y541150D03*
Y534850D03*
X218250Y264150D03*
Y257850D03*
Y294150D03*
Y287850D03*
Y204150D03*
Y197850D03*
X219250Y661150D03*
Y654850D03*
X277750Y461150D03*
Y454850D03*
X360600Y418550D03*
Y412250D03*
X218250Y384150D03*
Y377850D03*
X219250Y631150D03*
Y624850D03*
Y721150D03*
Y714850D03*
Y571150D03*
Y564850D03*
Y601150D03*
Y594850D03*
X218250Y144150D03*
Y137850D03*
X219250Y691150D03*
Y684850D03*
X277750Y438350D03*
Y444650D03*
X218250Y324150D03*
Y317850D03*
X377250Y187850D03*
Y194150D03*
X274250Y431650D03*
Y425350D03*
X287250Y754850D03*
Y761150D03*
X303250Y754850D03*
Y761150D03*
Y775850D03*
Y782150D03*
X358250Y220150D03*
Y213850D03*
X363000Y265150D03*
Y258850D03*
X361250Y187850D03*
Y194150D03*
X144250Y665150D03*
Y658850D03*
X263250Y257150D03*
Y250850D03*
X359500Y283400D03*
Y277100D03*
X369250Y187850D03*
Y194150D03*
X320250Y241150D03*
Y234850D03*
X366250Y220150D03*
Y213850D03*
X263250Y277150D03*
Y270850D03*
X281750Y547150D03*
Y540850D03*
X295250Y775850D03*
Y782150D03*
X325250Y680150D03*
Y673850D03*
X271250Y775850D03*
Y782150D03*
X287250Y775850D03*
Y782150D03*
X144250Y545150D03*
Y538850D03*
X344000Y304150D03*
Y297850D03*
X144250Y575150D03*
Y568850D03*
X279250Y775850D03*
Y782150D03*
X347250Y238850D03*
Y245150D03*
X328250Y234850D03*
Y241150D03*
X287250Y277150D03*
Y270850D03*
X144250Y635150D03*
Y628850D03*
X364000Y501650D03*
Y495350D03*
X343500Y500650D03*
Y494350D03*
X274250Y540850D03*
Y547150D03*
X144250Y605150D03*
Y598850D03*
X295250Y754850D03*
Y761150D03*
X313000Y537850D03*
Y544150D03*
X358250Y231850D03*
Y238150D03*
X295250Y257150D03*
Y250850D03*
X317000Y290850D03*
Y297150D03*
X359000Y703350D03*
Y709650D03*
X306000Y270850D03*
Y277150D03*
X335500Y544150D03*
Y537850D03*
X271250Y257150D03*
Y250850D03*
X144250Y515150D03*
Y508850D03*
X287250Y257150D03*
Y250850D03*
X279250Y257150D03*
Y250850D03*
X144500Y753150D03*
Y746850D03*
X281250Y425350D03*
Y431650D03*
X271250Y277150D03*
Y270850D03*
X144250Y725150D03*
Y718850D03*
X295250Y277150D03*
Y270850D03*
X144250Y695150D03*
Y688850D03*
X271250Y754850D03*
Y761150D03*
X336250Y241150D03*
Y234850D03*
X279250Y277150D03*
Y270850D03*
X313250Y318150D03*
Y311850D03*
X279250Y754850D03*
Y761150D03*
X359000Y727350D03*
Y733650D03*
G54D54*
X253864Y344638D03*
Y342669D03*
Y340701D03*
Y338732D03*
Y336764D03*
Y334795D03*
Y332827D03*
Y330858D03*
Y328890D03*
Y326921D03*
Y324953D03*
Y322984D03*
Y321016D03*
Y319047D03*
Y317079D03*
Y315110D03*
Y313142D03*
Y311173D03*
Y309205D03*
Y307236D03*
Y305268D03*
Y303299D03*
Y301331D03*
Y299362D03*
X280636D03*
Y301331D03*
Y303299D03*
Y305268D03*
Y307236D03*
Y309205D03*
Y311173D03*
Y313142D03*
Y315110D03*
Y317079D03*
Y319047D03*
Y321016D03*
Y322984D03*
Y324953D03*
Y326921D03*
Y328890D03*
Y330858D03*
Y332827D03*
Y334795D03*
Y336764D03*
Y338732D03*
Y340701D03*
Y342669D03*
Y344638D03*
X251864Y710638D03*
Y708669D03*
Y706701D03*
Y704732D03*
Y702764D03*
Y700795D03*
Y698827D03*
Y696858D03*
Y694890D03*
Y692921D03*
Y690953D03*
Y688984D03*
Y687016D03*
Y685047D03*
Y683079D03*
Y681110D03*
Y679142D03*
Y677173D03*
Y675205D03*
Y673236D03*
Y671268D03*
Y669299D03*
Y667331D03*
Y665362D03*
X278636D03*
Y667331D03*
Y669299D03*
Y671268D03*
Y673236D03*
Y675205D03*
Y677173D03*
Y679142D03*
Y681110D03*
Y683079D03*
Y685047D03*
Y687016D03*
Y688984D03*
Y690953D03*
Y692921D03*
Y694890D03*
Y696858D03*
Y698827D03*
Y700795D03*
Y702764D03*
Y704732D03*
Y706701D03*
Y708669D03*
Y710638D03*
G54D55*
X306150Y425000D03*
X299850D03*
X336400Y249000D03*
X330100D03*
X291100Y678000D03*
X297400D03*
X292600Y321000D03*
X298900D03*
X399850Y762500D03*
X406150D03*
X291100Y671000D03*
X297400D03*
X314100Y267797D03*
X320400D03*
X399350Y749000D03*
X405650D03*
X292600Y314000D03*
X298900D03*
X216100Y121000D03*
X222400D03*
X366850Y349000D03*
X373150D03*
X374100Y221000D03*
X380400D03*
X291100Y685000D03*
X297400D03*
X292600Y307000D03*
X298900D03*
X373600Y250250D03*
X379900D03*
X223850Y777000D03*
X230150D03*
X399350Y726000D03*
X405650D03*
X179850Y777000D03*
X186150D03*
X249350Y269500D03*
X255650D03*
X374050Y403500D03*
X367750D03*
X223850Y767000D03*
X230150D03*
X339850Y438000D03*
X346150D03*
X428150Y150000D03*
X421850D03*
X373850Y273500D03*
X380150D03*
X216100Y492000D03*
X222400D03*
X390150Y173750D03*
X383850D03*
X336400Y263000D03*
X330100D03*
X260650Y782500D03*
X254350D03*
X367350Y313000D03*
X373650D03*
X336400Y256000D03*
X330100D03*
X306400Y349000D03*
X300100D03*
X161400Y270000D03*
X155100D03*
X161400Y390000D03*
X155100D03*
X183100Y121000D03*
X189400D03*
X390150Y187500D03*
X383850D03*
X203100Y414000D03*
X209400D03*
X303400Y713000D03*
X297100D03*
X204100Y603000D03*
X210400D03*
X204100Y513000D03*
X210400D03*
X204100Y167000D03*
X210400D03*
X161400Y698000D03*
X155100D03*
X161400Y608000D03*
X155100D03*
X204100Y175000D03*
X210400D03*
X203100Y444000D03*
X209400D03*
X337350Y115000D03*
X343650D03*
X379150Y118000D03*
X372850D03*
X203100Y436000D03*
X209400D03*
X204100Y377000D03*
X210400D03*
X386850Y108250D03*
X393150D03*
X161400Y150000D03*
X155100D03*
X376850Y692000D03*
X383150D03*
X337350Y108500D03*
X343650D03*
X375150Y759000D03*
X368850D03*
X161400Y330000D03*
X155100D03*
X204100Y543000D03*
X210400D03*
X203100Y406000D03*
X209400D03*
X161400Y548000D03*
X155100D03*
X326100Y693000D03*
X332400D03*
X204100Y145000D03*
X210400D03*
X161400Y518000D03*
X155100D03*
X200150Y777000D03*
X193850D03*
X161150Y760500D03*
X154850D03*
X208850Y777000D03*
X215150D03*
X320350Y570500D03*
X326650D03*
X376850Y684000D03*
X383150D03*
X160400Y419000D03*
X154100D03*
X345850Y385000D03*
X352150D03*
X208850Y767000D03*
X215150D03*
X204100Y573000D03*
X210400D03*
X421850Y143500D03*
X428150D03*
X204350Y744500D03*
X210650D03*
X193850Y767000D03*
X200150D03*
X280400Y361000D03*
X274100D03*
X374100Y213000D03*
X380400D03*
X442350Y626000D03*
X448650D03*
X164850Y777000D03*
X171150D03*
X306400Y342000D03*
X300100D03*
X204100Y205000D03*
X210400D03*
X254350Y774500D03*
X260650D03*
X336400Y270000D03*
X330100D03*
X204100Y295000D03*
X210400D03*
X204100Y137000D03*
X210400D03*
X374100Y205000D03*
X380400D03*
X303400Y706000D03*
X297100D03*
X339850Y445000D03*
X346150D03*
X204100Y227000D03*
X210400D03*
X373950Y428700D03*
X367650D03*
X204100Y287000D03*
X210400D03*
X318100Y318000D03*
X324400D03*
X204100Y535000D03*
X210400D03*
X411900Y139000D03*
X405600D03*
X155100Y121000D03*
X161400D03*
X204100Y355000D03*
X210400D03*
X320400Y274000D03*
X314100D03*
X303400Y720000D03*
X297100D03*
X161400Y180000D03*
X155100D03*
X442350Y596500D03*
X448650D03*
X147400Y492000D03*
X141100D03*
X435850Y150000D03*
X442150D03*
X442350Y633500D03*
X448650D03*
X204100Y655000D03*
X210400D03*
X442350Y641000D03*
X448650D03*
X442350Y603500D03*
X448650D03*
X204100Y595000D03*
X210400D03*
X161400Y728000D03*
X155100D03*
X204100Y693000D03*
X210400D03*
X442350Y618500D03*
X448650D03*
X320350Y581500D03*
X326650D03*
X442350Y611000D03*
X448650D03*
X204100Y197000D03*
X210400D03*
X204100Y715000D03*
X210400D03*
X277400Y727000D03*
X271100D03*
X352850Y292000D03*
X359150D03*
X329100Y330000D03*
X335400D03*
X305850Y526000D03*
X312150D03*
X329100Y337000D03*
X335400D03*
X306400Y356000D03*
X300100D03*
X306400Y335000D03*
X300100D03*
X320350Y593500D03*
X326650D03*
X204100Y663000D03*
X210400D03*
X403850Y198000D03*
X410150D03*
X403850Y191000D03*
X410150D03*
X442350Y648500D03*
X448650D03*
X300100Y328000D03*
X306400D03*
X156150Y777000D03*
X149850D03*
X204100Y385000D03*
X210400D03*
X303400Y699000D03*
X297100D03*
X161400Y578000D03*
X155100D03*
X191100Y492500D03*
X197400D03*
X320350Y559000D03*
X326650D03*
X204100Y723000D03*
X210400D03*
X160400Y449000D03*
X154100D03*
X326100Y700000D03*
X332400D03*
X171100Y492000D03*
X177400D03*
X161400Y240000D03*
X155100D03*
X204100Y257000D03*
X210400D03*
X255650Y262500D03*
X249350D03*
X161400Y668000D03*
X155100D03*
X204100Y625000D03*
X210400D03*
X204100Y235000D03*
X210400D03*
X204100Y685000D03*
X210400D03*
X161400Y210000D03*
X155100D03*
X383850Y180500D03*
X390150D03*
X256100Y361000D03*
X262400D03*
X203100Y474000D03*
X209400D03*
X161400Y360000D03*
X155100D03*
X375150Y730500D03*
X368850D03*
X204100Y265000D03*
X210400D03*
X204100Y633000D03*
X210400D03*
X204100Y347000D03*
X210400D03*
X204100Y325000D03*
X210400D03*
X311100Y692000D03*
X317400D03*
X160400Y479000D03*
X154100D03*
X387100Y118250D03*
X393400D03*
X376850Y700000D03*
X383150D03*
X203100Y466000D03*
X209400D03*
X411900Y146000D03*
X405600D03*
X204100Y317000D03*
X210400D03*
X204350Y752000D03*
X210650D03*
X253100Y727000D03*
X259400D03*
X204100Y565000D03*
X210400D03*
X161400Y300000D03*
X155100D03*
X161400Y638000D03*
X155100D03*
X297100Y692000D03*
X303400D03*
X204100Y505000D03*
X210400D03*
G54D56*
X321000Y206688D03*
Y221312D03*
X348000Y257688D03*
Y272312D03*
X328000Y288688D03*
Y303312D03*
G54D57*
X131250Y526791D03*
Y513209D03*
X142250Y164791D03*
Y151209D03*
G54D58*
X420000Y389400D03*
Y352600D03*
X402000Y389400D03*
Y352600D03*
X438000Y389400D03*
Y352600D03*
G54D59*
X318650Y365055D03*
Y356000D03*
Y346945D03*
X315650Y729055D03*
Y720000D03*
Y710945D03*
G54D60*
X343850Y356000D03*
X340850Y720000D03*
G54D61*
X272750Y469250D03*
X277750D03*
X282750D03*
X287750D03*
X292750D03*
X297750D03*
X302750D03*
X307750D03*
Y502750D03*
X302750D03*
X297750D03*
X292750D03*
X287750D03*
X282750D03*
X277750D03*
X272750D03*
G54D62*
X332355Y206825D03*
X336295D03*
X340235D03*
X342205D03*
X344175D03*
X346145D03*
Y223175D03*
X344175D03*
X342205D03*
X340235D03*
X336295D03*
X332355D03*
G54D63*
X339250Y215000D03*
G54D65*
X327014Y134000D03*
X347486D03*
X327014Y157000D03*
X347486D03*
X327014Y180000D03*
X347486D03*
G54D67*
X285500Y727300D03*
Y736700D03*
X245500Y727300D03*
Y736700D03*
X277500Y373300D03*
Y382700D03*
X245000Y361300D03*
Y370700D03*
X343000Y471700D03*
Y462300D03*
G54D69*
X196250Y625260D03*
Y632740D03*
X188250Y629000D03*
X196250Y505260D03*
Y512740D03*
X188250Y509000D03*
X196250Y197260D03*
Y204740D03*
X188250Y201000D03*
X195250Y406260D03*
Y413740D03*
X187250Y410000D03*
X196250Y565260D03*
Y572740D03*
X188250Y569000D03*
X196250Y655260D03*
Y662740D03*
X188250Y659000D03*
X196250Y287260D03*
Y294740D03*
X188250Y291000D03*
X196250Y595260D03*
Y602740D03*
X188250Y599000D03*
X196250Y715260D03*
Y722740D03*
X188250Y719000D03*
X196250Y377260D03*
Y384740D03*
X188250Y381000D03*
X196250Y167260D03*
Y174740D03*
X188250Y171000D03*
X196250Y317260D03*
Y324740D03*
X188250Y321000D03*
X196250Y535260D03*
Y542740D03*
X188250Y539000D03*
X196250Y347260D03*
Y354740D03*
X188250Y351000D03*
X196250Y227260D03*
Y234740D03*
X188250Y231000D03*
X196250Y685260D03*
Y692740D03*
X188250Y689000D03*
X196250Y137260D03*
Y144740D03*
X188250Y141000D03*
X196250Y257260D03*
Y264740D03*
X188250Y261000D03*
X195250Y466260D03*
Y473740D03*
X187250Y470000D03*
X195250Y436260D03*
Y443740D03*
X187250Y440000D03*
X196250Y744760D03*
Y752240D03*
X188250Y748500D03*
G54D70*
X394650Y741250D03*
Y733750D03*
X403350Y737500D03*
X369900Y265500D03*
Y258000D03*
X378600Y261750D03*
G54D71*
X278250Y218000D03*
X304250D03*
G54D72*
X392000Y165000D03*
G54D73*
X382000D03*
X372000D03*
Y130000D03*
X382000D03*
X392000D03*
G54D74*
X174297Y300000D03*
X180203D03*
X435453Y618500D03*
X429547D03*
X174297Y330000D03*
X180203D03*
X174297Y548000D03*
X180203D03*
X174297Y728000D03*
X180203D03*
X174297Y578000D03*
X180203D03*
X174297Y638000D03*
X180203D03*
X435453Y603500D03*
X429547D03*
X174297Y360000D03*
X180203D03*
X173297Y419000D03*
X179203D03*
X435453Y596500D03*
X429547D03*
X173547Y760500D03*
X179453D03*
X174297Y180000D03*
X180203D03*
X329453Y108500D03*
X323547D03*
X174297Y698000D03*
X180203D03*
X173297Y449000D03*
X179203D03*
X174297Y270000D03*
X180203D03*
X174297Y240000D03*
X180203D03*
X435453Y633500D03*
X429547D03*
X435453Y611000D03*
X429547D03*
X435453Y641000D03*
X429547D03*
X329453Y115000D03*
X323547D03*
X173297Y479000D03*
X179203D03*
X174297Y390000D03*
X180203D03*
X174297Y668000D03*
X180203D03*
X344000Y310047D03*
Y315953D03*
X174297Y150000D03*
X180203D03*
X174297Y518000D03*
X180203D03*
X174297Y210000D03*
X180203D03*
X435453Y648500D03*
X429547D03*
X174297Y608000D03*
X180203D03*
X435453Y626000D03*
X429547D03*
G54D75*
X179750Y228000D03*
X154750D03*
X179750Y626000D03*
X154750D03*
X179750Y348000D03*
X154750D03*
X178750Y467000D03*
X153750D03*
X179750Y138000D03*
X154750D03*
X179750Y748000D03*
X154750D03*
X179750Y288000D03*
X154750D03*
X179750Y378000D03*
X154750D03*
X179750Y506000D03*
X154750D03*
X179750Y318000D03*
X154750D03*
X179750Y198000D03*
X154750D03*
X179750Y686000D03*
X154750D03*
X179750Y566000D03*
X154750D03*
X179750Y716000D03*
X154750D03*
X179750Y656000D03*
X154750D03*
X179750Y596000D03*
X154750D03*
X178750Y407000D03*
X153750D03*
X179750Y168000D03*
X154750D03*
X178750Y437000D03*
X153750D03*
X179750Y536000D03*
X154750D03*
X179750Y258000D03*
X154750D03*
G54D76*
X302000Y173700D03*
Y184300D03*
X282000Y173700D03*
Y184300D03*
X272000Y173700D03*
Y184300D03*
X292000Y173700D03*
Y184300D03*
X312000Y173700D03*
Y184300D03*
G54D116*
X399100Y272500D03*
X435900D03*
G54D117*
X345303Y805000D03*
X340382D03*
X335461D03*
X330539D03*
X325618D03*
X320697D03*
G54D118*
X314791Y817598D03*
X351209D03*
G54D119*
X367700Y420500D03*
Y411839D03*
X373999D03*
Y420500D03*
G54D120*
X371500Y322000D03*
Y327000D03*
Y332000D03*
Y337000D03*
Y342000D03*
G54D121*
X347091Y332000D03*
G54D122*
X410000Y181000D03*
G54D123*
Y171000D03*
Y161000D03*
X445000D03*
Y171000D03*
Y181000D03*
G54D124*
X368260Y710882D03*
X375740D03*
X372000Y721118D03*
X368260Y739882D03*
X375740D03*
X372000Y750118D03*
G54D125*
X325469Y538047D03*
Y540016D03*
Y541984D03*
Y543953D03*
X321531D03*
Y541984D03*
Y540016D03*
Y538047D03*
G54D126*
X404100Y771043D03*
Y773602D03*
Y776161D03*
Y778720D03*
Y781280D03*
Y783839D03*
Y786398D03*
Y788957D03*
X381900D03*
Y786398D03*
Y783839D03*
Y781280D03*
Y778720D03*
Y776161D03*
Y773602D03*
Y771043D03*
X0Y0D02*
M02*
