*
*
G04 PADS VX.2 Build Number: 5060570 generated Gerber (RS-274-X) file*
G04 PC Version=2.1*
*
%IN "Board2.pcb"*%
*
%MOIN*%
*
%FSLAX35Y35*%
*
*
*
*
G04 PC Standard Apertures*
*
*
G04 Thermal Relief Aperture macro.*
%AMTER*
1,1,$1,0,0*
1,0,$1-$2,0,0*
21,0,$3,$4,0,0,45*
21,0,$3,$4,0,0,135*
%
*
*
G04 Annular Aperture macro.*
%AMANN*
1,1,$1,0,0*
1,0,$2,0,0*
%
*
*
G04 Odd Aperture macro.*
%AMODD*
1,1,$1,0,0*
1,0,$1-0.005,0,0*
%
*
*
G04 PC Custom Aperture Macros*
*
*
*
*
*
*
G04 PC Aperture Table*
*
%ADD010C,0.001*%
%ADD015C,0.01*%
%ADD019R,0.04937X0.0474*%
%ADD020R,0.06512X0.01984*%
%ADD021R,0.0474X0.04937*%
%ADD022R,0.074X0.096*%
%ADD023R,0.034X0.054*%
%ADD024R,0.145X0.138*%
%ADD025C,0.51*%
%ADD026R,0.073X0.045*%
%ADD027R,0.073X0.134*%
%ADD028R,0.04X0.075*%
%ADD029R,0.0218X0.045*%
%ADD030R,0.122X0.075*%
%ADD032R,0.05724X0.21276*%
%ADD036C,0.07*%
%ADD037C,0.166*%
%ADD038R,0.0573X0.066*%
%ADD040R,0.062X0.032*%
%ADD041C,0.135*%
%ADD042R,0.055X0.032*%
%ADD043R,0.148X0.412*%
%ADD044R,0.0355X0.0749*%
%ADD045O,0.0355X0.0749*%
%ADD046R,0.0415X0.0415*%
%ADD047R,0.06X0.14*%
%ADD052R,0.073X0.046*%
%ADD099R,0.138X0.145*%
%ADD100C,0.36433*%
%ADD101C,0.056*%
%ADD102C,0.066*%
%ADD103R,0.03175X0.07693*%
%ADD104R,0.04937X0.1163*%
%ADD105C,0.01984*%
%ADD106R,0.05724X0.06512*%
%ADD107R,0.09661X0.03362*%
%ADD108R,0.09661X0.1478*%
%ADD109R,0.0749X0.0355*%
%ADD110O,0.0749X0.0355*%
%ADD111R,0.03559X0.05331*%
%ADD112C,0.02043*%
%ADD113C,0.069*%
%ADD114C,0.075*%
%ADD115R,0.076X0.024*%
*
*
*
*
G04 PC Circuitry*
G04 Layer Name Board2.pcb - circuitry*
%LPD*%
*
*
G04 PC Custom Flashes*
G04 Layer Name Board2.pcb - flashes*
%LPD*%
*
*
G04 PC Circuitry*
G04 Layer Name Board2.pcb - circuitry*
%LPD*%
*
G54D10*
G01X246603Y490715D02*
Y488975D01*
X252875Y487158*
Y488898*
X246603Y490715*
X243577Y488521D02*
Y486883D01*
X254095Y483836*
X254249Y483791*
Y481720*
X255902Y481242*
Y484949*
X243577Y488521*
X240550Y486433D02*
Y482725D01*
X252875Y479155*
Y482862*
X240550Y486433*
X246603Y490715D02*
X246603D01*
Y490615D02*
X246949D01*
X246603Y490515D02*
X247294D01*
X246603Y490415D02*
X247639D01*
X246603Y490315D02*
X247984D01*
X246603Y490215D02*
X248329D01*
X246603Y490115D02*
X248674D01*
X246603Y490015D02*
X249019D01*
X246603Y489915D02*
X249364D01*
X246603Y489815D02*
X249709D01*
X246603Y489715D02*
X250054D01*
X246603Y489615D02*
X250400D01*
X246603Y489515D02*
X250745D01*
X246603Y489415D02*
X251090D01*
X246603Y489315D02*
X251435D01*
X246603Y489215D02*
X251780D01*
X246603Y489115D02*
X252125D01*
X246603Y489015D02*
X252470D01*
X246809Y488915D02*
X252815D01*
X247154Y488815D02*
X252875D01*
X247499Y488715D02*
X252875D01*
X247844Y488615D02*
X252875D01*
X248190Y488515D02*
X252875D01*
X248535Y488415D02*
X252875D01*
X248880Y488315D02*
X252875D01*
X249225Y488215D02*
X252875D01*
X249570Y488115D02*
X252875D01*
X249915Y488015D02*
X252875D01*
X250260Y487915D02*
X252875D01*
X250606Y487815D02*
X252875D01*
X250951Y487715D02*
X252875D01*
X251296Y487615D02*
X252875D01*
X251641Y487515D02*
X252875D01*
X251986Y487415D02*
X252875D01*
X252331Y487315D02*
X252875D01*
X252677Y487215D02*
X252875D01*
X246603Y488975D02*
Y490715D01*
X246703Y488946D02*
Y490686D01*
X246803Y488917D02*
Y490657D01*
X246903Y488888D02*
Y490628D01*
X247003Y488859D02*
Y490599D01*
X247103Y488830D02*
Y490570D01*
X247203Y488801D02*
Y490541D01*
X247303Y488772D02*
Y490512D01*
X247403Y488743D02*
Y490483D01*
X247503Y488714D02*
Y490454D01*
X247603Y488685D02*
Y490425D01*
X247703Y488656D02*
Y490396D01*
X247803Y488627D02*
Y490367D01*
X247903Y488598D02*
Y490338D01*
X248003Y488569D02*
Y490309D01*
X248103Y488540D02*
Y490280D01*
X248203Y488511D02*
Y490251D01*
X248303Y488482D02*
Y490222D01*
X248403Y488453D02*
Y490193D01*
X248503Y488424D02*
Y490165D01*
X248603Y488395D02*
Y490136D01*
X248703Y488366D02*
Y490107D01*
X248803Y488337D02*
Y490078D01*
X248903Y488308D02*
Y490049D01*
X249003Y488279D02*
Y490020D01*
X249103Y488250D02*
Y489991D01*
X249203Y488221D02*
Y489962D01*
X249303Y488192D02*
Y489933D01*
X249403Y488163D02*
Y489904D01*
X249503Y488134D02*
Y489875D01*
X249603Y488105D02*
Y489846D01*
X249703Y488076D02*
Y489817D01*
X249803Y488047D02*
Y489788D01*
X249903Y488019D02*
Y489759D01*
X250003Y487990D02*
Y489730D01*
X250103Y487961D02*
Y489701D01*
X250203Y487932D02*
Y489672D01*
X250303Y487903D02*
Y489643D01*
X250403Y487874D02*
Y489614D01*
X250503Y487845D02*
Y489585D01*
X250603Y487816D02*
Y489556D01*
X250703Y487787D02*
Y489527D01*
X250803Y487758D02*
Y489498D01*
X250903Y487729D02*
Y489469D01*
X251003Y487700D02*
Y489440D01*
X251103Y487671D02*
Y489411D01*
X251203Y487642D02*
Y489382D01*
X251303Y487613D02*
Y489353D01*
X251403Y487584D02*
Y489324D01*
X251503Y487555D02*
Y489295D01*
X251603Y487526D02*
Y489266D01*
X251703Y487497D02*
Y489237D01*
X251803Y487468D02*
Y489208D01*
X251903Y487439D02*
Y489179D01*
X252003Y487410D02*
Y489150D01*
X252103Y487381D02*
Y489121D01*
X252203Y487352D02*
Y489092D01*
X252303Y487323D02*
Y489063D01*
X252403Y487294D02*
Y489034D01*
X252503Y487265D02*
Y489005D01*
X252603Y487236D02*
Y488976D01*
X252703Y487207D02*
Y488947D01*
X252803Y487178D02*
Y488918D01*
X243577Y488521D02*
X243577D01*
Y488421D02*
X243922D01*
X243577Y488321D02*
X244267D01*
X243577Y488221D02*
X244612D01*
X243577Y488121D02*
X244957D01*
X243577Y488021D02*
X245302D01*
X243577Y487921D02*
X245647D01*
X243577Y487821D02*
X245992D01*
X243577Y487721D02*
X246337D01*
X243577Y487621D02*
X246682D01*
X243577Y487521D02*
X247027D01*
X243577Y487421D02*
X247372D01*
X243577Y487321D02*
X247717D01*
X243577Y487221D02*
X248063D01*
X243577Y487121D02*
X248408D01*
X243577Y487021D02*
X248753D01*
X243577Y486921D02*
X249098D01*
X243792Y486821D02*
X249443D01*
X244138Y486721D02*
X249788D01*
X244483Y486621D02*
X250133D01*
X244828Y486521D02*
X250478D01*
X245173Y486421D02*
X250823D01*
X245518Y486321D02*
X251168D01*
X245863Y486221D02*
X251513D01*
X246208Y486121D02*
X251858D01*
X246554Y486021D02*
X252203D01*
X246899Y485921D02*
X252549D01*
X247244Y485821D02*
X252894D01*
X247589Y485721D02*
X253239D01*
X247934Y485621D02*
X253584D01*
X248279Y485521D02*
X253929D01*
X248624Y485421D02*
X254274D01*
X248970Y485321D02*
X254619D01*
X249315Y485221D02*
X254964D01*
X249660Y485121D02*
X255309D01*
X250005Y485021D02*
X255654D01*
X250350Y484921D02*
X255902D01*
X250695Y484821D02*
X255902D01*
X251040Y484721D02*
X255902D01*
X251386Y484621D02*
X255902D01*
X251731Y484521D02*
X255902D01*
X252076Y484421D02*
X255902D01*
X252421Y484321D02*
X255902D01*
X252766Y484221D02*
X255902D01*
X253111Y484121D02*
X255902D01*
X253456Y484021D02*
X255902D01*
X253801Y483921D02*
X255902D01*
X254146Y483821D02*
X255902D01*
X254249Y483721D02*
X255902D01*
X254249Y483621D02*
X255902D01*
X254249Y483521D02*
X255902D01*
X254249Y483421D02*
X255902D01*
X254249Y483321D02*
X255902D01*
X254249Y483221D02*
X255902D01*
X254249Y483121D02*
X255902D01*
X254249Y483021D02*
X255902D01*
X254249Y482921D02*
X255902D01*
X254249Y482821D02*
X255902D01*
X254249Y482721D02*
X255902D01*
X254249Y482621D02*
X255902D01*
X254249Y482521D02*
X255902D01*
X254249Y482421D02*
X255902D01*
X254249Y482321D02*
X255902D01*
X254249Y482221D02*
X255902D01*
X254249Y482121D02*
X255902D01*
X254249Y482021D02*
X255902D01*
X254249Y481921D02*
X255902D01*
X254249Y481821D02*
X255902D01*
X254249Y481721D02*
X255902D01*
X254592Y481621D02*
X255902D01*
X254938Y481521D02*
X255902D01*
X255283Y481421D02*
X255902D01*
X255629Y481321D02*
X255902D01*
X243577Y486883D02*
Y488521D01*
X243677Y486854D02*
Y488492D01*
X243777Y486825D02*
Y488463D01*
X243877Y486796D02*
Y488434D01*
X243977Y486768D02*
Y488405D01*
X244077Y486739D02*
Y488376D01*
X244177Y486710D02*
Y488347D01*
X244277Y486681D02*
Y488318D01*
X244377Y486652D02*
Y488289D01*
X244477Y486623D02*
Y488260D01*
X244577Y486594D02*
Y488231D01*
X244677Y486565D02*
Y488202D01*
X244777Y486536D02*
Y488173D01*
X244877Y486507D02*
Y488144D01*
X244977Y486478D02*
Y488115D01*
X245077Y486449D02*
Y488086D01*
X245177Y486420D02*
Y488057D01*
X245277Y486391D02*
Y488028D01*
X245377Y486362D02*
Y487999D01*
X245477Y486333D02*
Y487970D01*
X245577Y486304D02*
Y487941D01*
X245677Y486275D02*
Y487912D01*
X245777Y486246D02*
Y487883D01*
X245877Y486217D02*
Y487854D01*
X245977Y486188D02*
Y487825D01*
X246077Y486159D02*
Y487796D01*
X246177Y486130D02*
Y487767D01*
X246277Y486101D02*
Y487738D01*
X246377Y486072D02*
Y487709D01*
X246477Y486043D02*
Y487680D01*
X246577Y486014D02*
Y487651D01*
X246677Y485985D02*
Y487622D01*
X246777Y485956D02*
Y487594D01*
X246877Y485927D02*
Y487565D01*
X246977Y485898D02*
Y487536D01*
X247077Y485869D02*
Y487507D01*
X247177Y485840D02*
Y487478D01*
X247277Y485811D02*
Y487449D01*
X247377Y485782D02*
Y487420D01*
X247477Y485753D02*
Y487391D01*
X247577Y485724D02*
Y487362D01*
X247677Y485695D02*
Y487333D01*
X247777Y485667D02*
Y487304D01*
X247877Y485638D02*
Y487275D01*
X247977Y485609D02*
Y487246D01*
X248077Y485580D02*
Y487217D01*
X248177Y485551D02*
Y487188D01*
X248277Y485522D02*
Y487159D01*
X248377Y485493D02*
Y487130D01*
X248477Y485464D02*
Y487101D01*
X248577Y485435D02*
Y487072D01*
X248677Y485406D02*
Y487043D01*
X248777Y485377D02*
Y487014D01*
X248877Y485348D02*
Y486985D01*
X248977Y485319D02*
Y486956D01*
X249077Y485290D02*
Y486927D01*
X249177Y485261D02*
Y486898D01*
X249277Y485232D02*
Y486869D01*
X249377Y485203D02*
Y486840D01*
X249477Y485174D02*
Y486811D01*
X249577Y485145D02*
Y486782D01*
X249677Y485116D02*
Y486753D01*
X249777Y485087D02*
Y486724D01*
X249877Y485058D02*
Y486695D01*
X249977Y485029D02*
Y486666D01*
X250077Y485000D02*
Y486637D01*
X250177Y484971D02*
Y486608D01*
X250277Y484942D02*
Y486579D01*
X250377Y484913D02*
Y486550D01*
X250477Y484884D02*
Y486521D01*
X250577Y484855D02*
Y486492D01*
X250677Y484826D02*
Y486463D01*
X250777Y484797D02*
Y486434D01*
X250877Y484768D02*
Y486405D01*
X250977Y484739D02*
Y486376D01*
X251077Y484710D02*
Y486347D01*
X251177Y484681D02*
Y486318D01*
X251277Y484652D02*
Y486289D01*
X251377Y484623D02*
Y486260D01*
X251477Y484594D02*
Y486231D01*
X251577Y484565D02*
Y486203D01*
X251677Y484537D02*
Y486174D01*
X251777Y484508D02*
Y486145D01*
X251877Y484479D02*
Y486116D01*
X251977Y484450D02*
Y486087D01*
X252077Y484421D02*
Y486058D01*
X252177Y484392D02*
Y486029D01*
X252277Y484363D02*
Y486000D01*
X252377Y484334D02*
Y485971D01*
X252477Y484305D02*
Y485942D01*
X252577Y484276D02*
Y485913D01*
X252677Y484247D02*
Y485884D01*
X252777Y484218D02*
Y485855D01*
X252877Y484189D02*
Y485826D01*
X252977Y484160D02*
Y485797D01*
X253077Y484131D02*
Y485768D01*
X253177Y484102D02*
Y485739D01*
X253277Y484073D02*
Y485710D01*
X253377Y484044D02*
Y485681D01*
X253477Y484015D02*
Y485652D01*
X253577Y483986D02*
Y485623D01*
X253677Y483957D02*
Y485594D01*
X253777Y483928D02*
Y485565D01*
X253877Y483899D02*
Y485536D01*
X253977Y483870D02*
Y485507D01*
X254077Y483841D02*
Y485478D01*
X254177Y483812D02*
Y485449D01*
X254277Y481712D02*
Y485420D01*
X254377Y481683D02*
Y485391D01*
X254477Y481654D02*
Y485362D01*
X254577Y481625D02*
Y485333D01*
X254677Y481596D02*
Y485304D01*
X254777Y481567D02*
Y485275D01*
X254877Y481539D02*
Y485246D01*
X254977Y481510D02*
Y485217D01*
X255077Y481481D02*
Y485188D01*
X255177Y481452D02*
Y485159D01*
X255277Y481423D02*
Y485130D01*
X255377Y481394D02*
Y485101D01*
X255477Y481365D02*
Y485072D01*
X255577Y481336D02*
Y485043D01*
X255677Y481307D02*
Y485014D01*
X255777Y481278D02*
Y484985D01*
X255877Y481249D02*
Y484956D01*
X240550Y486433D02*
X240550D01*
Y486333D02*
X240895D01*
X240550Y486233D02*
X241240D01*
X240550Y486133D02*
X241585D01*
X240550Y486033D02*
X241930D01*
X240550Y485933D02*
X242275D01*
X240550Y485833D02*
X242621D01*
X240550Y485733D02*
X242966D01*
X240550Y485633D02*
X243311D01*
X240550Y485533D02*
X243656D01*
X240550Y485433D02*
X244001D01*
X240550Y485333D02*
X244346D01*
X240550Y485233D02*
X244691D01*
X240550Y485133D02*
X245036D01*
X240550Y485033D02*
X245381D01*
X240550Y484933D02*
X245726D01*
X240550Y484833D02*
X246071D01*
X240550Y484733D02*
X246417D01*
X240550Y484633D02*
X246762D01*
X240550Y484533D02*
X247107D01*
X240550Y484433D02*
X247452D01*
X240550Y484333D02*
X247797D01*
X240550Y484233D02*
X248142D01*
X240550Y484133D02*
X248487D01*
X240550Y484033D02*
X248832D01*
X240550Y483933D02*
X249177D01*
X240550Y483833D02*
X249522D01*
X240550Y483733D02*
X249867D01*
X240550Y483633D02*
X250213D01*
X240550Y483533D02*
X250558D01*
X240550Y483433D02*
X250903D01*
X240550Y483333D02*
X251248D01*
X240550Y483233D02*
X251593D01*
X240550Y483133D02*
X251938D01*
X240550Y483033D02*
X252283D01*
X240550Y482933D02*
X252628D01*
X240550Y482833D02*
X252875D01*
X240550Y482733D02*
X252875D01*
X240867Y482633D02*
X252875D01*
X241212Y482533D02*
X252875D01*
X241558Y482433D02*
X252875D01*
X241903Y482333D02*
X252875D01*
X242248Y482233D02*
X252875D01*
X242593Y482133D02*
X252875D01*
X242938Y482033D02*
X252875D01*
X243283Y481933D02*
X252875D01*
X243629Y481833D02*
X252875D01*
X243974Y481733D02*
X252875D01*
X244319Y481633D02*
X252875D01*
X244664Y481533D02*
X252875D01*
X245009Y481433D02*
X252875D01*
X245354Y481333D02*
X252875D01*
X245700Y481233D02*
X252875D01*
X246045Y481133D02*
X252875D01*
X246390Y481033D02*
X252875D01*
X246735Y480933D02*
X252875D01*
X247080Y480833D02*
X252875D01*
X247425Y480733D02*
X252875D01*
X247771Y480633D02*
X252875D01*
X248116Y480533D02*
X252875D01*
X248461Y480433D02*
X252875D01*
X248806Y480333D02*
X252875D01*
X249151Y480233D02*
X252875D01*
X249496Y480133D02*
X252875D01*
X249842Y480033D02*
X252875D01*
X250187Y479933D02*
X252875D01*
X250532Y479833D02*
X252875D01*
X250877Y479733D02*
X252875D01*
X251222Y479633D02*
X252875D01*
X251567Y479533D02*
X252875D01*
X251913Y479433D02*
X252875D01*
X252258Y479333D02*
X252875D01*
X252603Y479233D02*
X252875D01*
X240550Y482725D02*
Y486433D01*
X240650Y482696D02*
Y486404D01*
X240750Y482667D02*
Y486376D01*
X240850Y482638D02*
Y486347D01*
X240950Y482609D02*
Y486318D01*
X241050Y482581D02*
Y486289D01*
X241150Y482552D02*
Y486260D01*
X241250Y482523D02*
Y486231D01*
X241350Y482494D02*
Y486202D01*
X241450Y482465D02*
Y486173D01*
X241550Y482436D02*
Y486144D01*
X241650Y482407D02*
Y486115D01*
X241750Y482378D02*
Y486086D01*
X241850Y482349D02*
Y486057D01*
X241950Y482320D02*
Y486028D01*
X242050Y482291D02*
Y485999D01*
X242150Y482262D02*
Y485970D01*
X242250Y482233D02*
Y485941D01*
X242350Y482204D02*
Y485912D01*
X242450Y482175D02*
Y485883D01*
X242550Y482146D02*
Y485854D01*
X242650Y482117D02*
Y485825D01*
X242750Y482088D02*
Y485796D01*
X242850Y482059D02*
Y485767D01*
X242950Y482030D02*
Y485738D01*
X243050Y482001D02*
Y485709D01*
X243150Y481972D02*
Y485680D01*
X243250Y481943D02*
Y485651D01*
X243350Y481914D02*
Y485622D01*
X243450Y481885D02*
Y485593D01*
X243550Y481856D02*
Y485564D01*
X243650Y481827D02*
Y485535D01*
X243750Y481798D02*
Y485506D01*
X243850Y481769D02*
Y485477D01*
X243950Y481740D02*
Y485448D01*
X244050Y481711D02*
Y485419D01*
X244150Y481682D02*
Y485390D01*
X244250Y481653D02*
Y485361D01*
X244350Y481624D02*
Y485332D01*
X244450Y481595D02*
Y485303D01*
X244550Y481567D02*
Y485274D01*
X244650Y481538D02*
Y485245D01*
X244750Y481509D02*
Y485216D01*
X244850Y481480D02*
Y485187D01*
X244950Y481451D02*
Y485158D01*
X245050Y481422D02*
Y485129D01*
X245150Y481393D02*
Y485100D01*
X245250Y481364D02*
Y485071D01*
X245350Y481335D02*
Y485043D01*
X245450Y481306D02*
Y485014D01*
X245550Y481277D02*
Y484985D01*
X245650Y481248D02*
Y484956D01*
X245750Y481219D02*
Y484927D01*
X245850Y481190D02*
Y484898D01*
X245950Y481161D02*
Y484869D01*
X246050Y481132D02*
Y484840D01*
X246150Y481103D02*
Y484811D01*
X246250Y481074D02*
Y484782D01*
X246350Y481045D02*
Y484753D01*
X246450Y481016D02*
Y484724D01*
X246550Y480987D02*
Y484695D01*
X246650Y480958D02*
Y484666D01*
X246750Y480929D02*
Y484637D01*
X246850Y480900D02*
Y484608D01*
X246950Y480871D02*
Y484579D01*
X247050Y480842D02*
Y484550D01*
X247150Y480813D02*
Y484521D01*
X247250Y480784D02*
Y484492D01*
X247350Y480755D02*
Y484463D01*
X247450Y480726D02*
Y484434D01*
X247550Y480697D02*
Y484405D01*
X247650Y480668D02*
Y484376D01*
X247750Y480639D02*
Y484347D01*
X247850Y480610D02*
Y484318D01*
X247950Y480581D02*
Y484289D01*
X248050Y480553D02*
Y484260D01*
X248150Y480524D02*
Y484231D01*
X248250Y480495D02*
Y484202D01*
X248350Y480466D02*
Y484173D01*
X248450Y480437D02*
Y484144D01*
X248550Y480408D02*
Y484115D01*
X248650Y480379D02*
Y484086D01*
X248750Y480350D02*
Y484057D01*
X248850Y480321D02*
Y484028D01*
X248950Y480292D02*
Y483999D01*
X249050Y480263D02*
Y483970D01*
X249150Y480234D02*
Y483941D01*
X249250Y480205D02*
Y483912D01*
X249350Y480176D02*
Y483883D01*
X249450Y480147D02*
Y483854D01*
X249550Y480118D02*
Y483825D01*
X249650Y480089D02*
Y483796D01*
X249750Y480060D02*
Y483767D01*
X249850Y480031D02*
Y483739D01*
X249950Y480002D02*
Y483710D01*
X250050Y479973D02*
Y483681D01*
X250150Y479944D02*
Y483652D01*
X250250Y479915D02*
Y483623D01*
X250350Y479886D02*
Y483594D01*
X250450Y479857D02*
Y483565D01*
X250550Y479828D02*
Y483536D01*
X250650Y479799D02*
Y483507D01*
X250750Y479770D02*
Y483478D01*
X250850Y479741D02*
Y483449D01*
X250950Y479712D02*
Y483420D01*
X251050Y479683D02*
Y483391D01*
X251150Y479654D02*
Y483362D01*
X251250Y479625D02*
Y483333D01*
X251350Y479596D02*
Y483304D01*
X251450Y479567D02*
Y483275D01*
X251550Y479538D02*
Y483246D01*
X251650Y479510D02*
Y483217D01*
X251750Y479481D02*
Y483188D01*
X251850Y479452D02*
Y483159D01*
X251950Y479423D02*
Y483130D01*
X252050Y479394D02*
Y483101D01*
X252150Y479365D02*
Y483072D01*
X252250Y479336D02*
Y483043D01*
X252350Y479307D02*
Y483014D01*
X252450Y479278D02*
Y482985D01*
X252550Y479249D02*
Y482956D01*
X252650Y479220D02*
Y482927D01*
X252750Y479191D02*
Y482898D01*
X252850Y479162D02*
Y482869D01*
G54D15*
X100000Y100000D02*
Y825000D01*
X455000*
Y100000*
X100000*
G54D19*
X367250Y231850D03*
Y238150D03*
X219000Y751650D03*
Y745350D03*
X218250Y174150D03*
Y167850D03*
X217250Y443150D03*
Y436850D03*
X355500Y501650D03*
Y495350D03*
X218250Y234150D03*
Y227850D03*
Y354150D03*
Y347850D03*
X255250Y183150D03*
Y176850D03*
X217250Y473150D03*
Y466850D03*
Y413150D03*
Y406850D03*
X219250Y511150D03*
Y504850D03*
X277750Y510850D03*
Y517150D03*
X263250Y183150D03*
Y176850D03*
X277750Y534150D03*
Y527850D03*
X219250Y541150D03*
Y534850D03*
X218250Y264150D03*
Y257850D03*
Y294150D03*
Y287850D03*
Y204150D03*
Y197850D03*
X219250Y661150D03*
Y654850D03*
X277750Y461150D03*
Y454850D03*
X360600Y418550D03*
Y412250D03*
X218250Y384150D03*
Y377850D03*
X219250Y631150D03*
Y624850D03*
Y721150D03*
Y714850D03*
Y571150D03*
Y564850D03*
Y601150D03*
Y594850D03*
X218250Y144150D03*
Y137850D03*
X219250Y691150D03*
Y684850D03*
X277750Y438350D03*
Y444650D03*
X218250Y324150D03*
Y317850D03*
X377250Y187850D03*
Y194150D03*
X274250Y431650D03*
Y425350D03*
X287250Y754850D03*
Y761150D03*
X303250Y754850D03*
Y761150D03*
Y775850D03*
Y782150D03*
X358250Y220150D03*
Y213850D03*
X363000Y265150D03*
Y258850D03*
X361250Y187850D03*
Y194150D03*
X144250Y665150D03*
Y658850D03*
X263250Y257150D03*
Y250850D03*
X359500Y283400D03*
Y277100D03*
X369250Y187850D03*
Y194150D03*
X320250Y241150D03*
Y234850D03*
X366250Y220150D03*
Y213850D03*
X263250Y277150D03*
Y270850D03*
X281750Y547150D03*
Y540850D03*
X295250Y775850D03*
Y782150D03*
X325250Y680150D03*
Y673850D03*
X271250Y775850D03*
Y782150D03*
X287250Y775850D03*
Y782150D03*
X144250Y545150D03*
Y538850D03*
X344000Y304150D03*
Y297850D03*
X144250Y575150D03*
Y568850D03*
X279250Y775850D03*
Y782150D03*
X347250Y238850D03*
Y245150D03*
X328250Y234850D03*
Y241150D03*
X287250Y277150D03*
Y270850D03*
X144250Y635150D03*
Y628850D03*
X364000Y501650D03*
Y495350D03*
X343500Y500650D03*
Y494350D03*
X274250Y540850D03*
Y547150D03*
X144250Y605150D03*
Y598850D03*
X295250Y754850D03*
Y761150D03*
X313000Y537850D03*
Y544150D03*
X358250Y231850D03*
Y238150D03*
X295250Y257150D03*
Y250850D03*
X317000Y290850D03*
Y297150D03*
X359000Y703350D03*
Y709650D03*
X306000Y270850D03*
Y277150D03*
X335500Y544150D03*
Y537850D03*
X271250Y257150D03*
Y250850D03*
X144250Y515150D03*
Y508850D03*
X287250Y257150D03*
Y250850D03*
X279250Y257150D03*
Y250850D03*
X144500Y753150D03*
Y746850D03*
X281250Y425350D03*
Y431650D03*
X271250Y277150D03*
Y270850D03*
X144250Y725150D03*
Y718850D03*
X295250Y277150D03*
Y270850D03*
X144250Y695150D03*
Y688850D03*
X271250Y754850D03*
Y761150D03*
X336250Y241150D03*
Y234850D03*
X279250Y277150D03*
Y270850D03*
X313250Y318150D03*
Y311850D03*
X279250Y754850D03*
Y761150D03*
X359000Y727350D03*
Y733650D03*
G54D20*
X253864Y344638D03*
Y342669D03*
Y340701D03*
Y338732D03*
Y336764D03*
Y334795D03*
Y332827D03*
Y330858D03*
Y328890D03*
Y326921D03*
Y324953D03*
Y322984D03*
Y321016D03*
Y319047D03*
Y317079D03*
Y315110D03*
Y313142D03*
Y311173D03*
Y309205D03*
Y307236D03*
Y305268D03*
Y303299D03*
Y301331D03*
Y299362D03*
X280636D03*
Y301331D03*
Y303299D03*
Y305268D03*
Y307236D03*
Y309205D03*
Y311173D03*
Y313142D03*
Y315110D03*
Y317079D03*
Y319047D03*
Y321016D03*
Y322984D03*
Y324953D03*
Y326921D03*
Y328890D03*
Y330858D03*
Y332827D03*
Y334795D03*
Y336764D03*
Y338732D03*
Y340701D03*
Y342669D03*
Y344638D03*
X251864Y710638D03*
Y708669D03*
Y706701D03*
Y704732D03*
Y702764D03*
Y700795D03*
Y698827D03*
Y696858D03*
Y694890D03*
Y692921D03*
Y690953D03*
Y688984D03*
Y687016D03*
Y685047D03*
Y683079D03*
Y681110D03*
Y679142D03*
Y677173D03*
Y675205D03*
Y673236D03*
Y671268D03*
Y669299D03*
Y667331D03*
Y665362D03*
X278636D03*
Y667331D03*
Y669299D03*
Y671268D03*
Y673236D03*
Y675205D03*
Y677173D03*
Y679142D03*
Y681110D03*
Y683079D03*
Y685047D03*
Y687016D03*
Y688984D03*
Y690953D03*
Y692921D03*
Y694890D03*
Y696858D03*
Y698827D03*
Y700795D03*
Y702764D03*
Y704732D03*
Y706701D03*
Y708669D03*
Y710638D03*
G54D21*
X306150Y425000D03*
X299850D03*
X336400Y249000D03*
X330100D03*
X291100Y678000D03*
X297400D03*
X292600Y321000D03*
X298900D03*
X399850Y762500D03*
X406150D03*
X291100Y671000D03*
X297400D03*
X314100Y267797D03*
X320400D03*
X399350Y749000D03*
X405650D03*
X292600Y314000D03*
X298900D03*
X216100Y121000D03*
X222400D03*
X366850Y349000D03*
X373150D03*
X374100Y221000D03*
X380400D03*
X291100Y685000D03*
X297400D03*
X292600Y307000D03*
X298900D03*
X373600Y250250D03*
X379900D03*
X223850Y777000D03*
X230150D03*
X399350Y726000D03*
X405650D03*
X179850Y777000D03*
X186150D03*
X249350Y269500D03*
X255650D03*
X374050Y403500D03*
X367750D03*
X223850Y767000D03*
X230150D03*
X339850Y438000D03*
X346150D03*
X428150Y150000D03*
X421850D03*
X373850Y273500D03*
X380150D03*
X216100Y492000D03*
X222400D03*
X390150Y173750D03*
X383850D03*
X336400Y263000D03*
X330100D03*
X260650Y782500D03*
X254350D03*
X367350Y313000D03*
X373650D03*
X336400Y256000D03*
X330100D03*
X306400Y349000D03*
X300100D03*
X161400Y270000D03*
X155100D03*
X161400Y390000D03*
X155100D03*
X183100Y121000D03*
X189400D03*
X390150Y187500D03*
X383850D03*
X203100Y414000D03*
X209400D03*
X303400Y713000D03*
X297100D03*
X204100Y603000D03*
X210400D03*
X204100Y513000D03*
X210400D03*
X204100Y167000D03*
X210400D03*
X161400Y698000D03*
X155100D03*
X161400Y608000D03*
X155100D03*
X204100Y175000D03*
X210400D03*
X203100Y444000D03*
X209400D03*
X337350Y115000D03*
X343650D03*
X379150Y118000D03*
X372850D03*
X203100Y436000D03*
X209400D03*
X204100Y377000D03*
X210400D03*
X386850Y108250D03*
X393150D03*
X161400Y150000D03*
X155100D03*
X376850Y692000D03*
X383150D03*
X337350Y108500D03*
X343650D03*
X375150Y759000D03*
X368850D03*
X161400Y330000D03*
X155100D03*
X204100Y543000D03*
X210400D03*
X203100Y406000D03*
X209400D03*
X161400Y548000D03*
X155100D03*
X326100Y693000D03*
X332400D03*
X204100Y145000D03*
X210400D03*
X161400Y518000D03*
X155100D03*
X200150Y777000D03*
X193850D03*
X161150Y760500D03*
X154850D03*
X208850Y777000D03*
X215150D03*
X320350Y570500D03*
X326650D03*
X376850Y684000D03*
X383150D03*
X160400Y419000D03*
X154100D03*
X345850Y385000D03*
X352150D03*
X208850Y767000D03*
X215150D03*
X204100Y573000D03*
X210400D03*
X421850Y143500D03*
X428150D03*
X204350Y744500D03*
X210650D03*
X193850Y767000D03*
X200150D03*
X280400Y361000D03*
X274100D03*
X374100Y213000D03*
X380400D03*
X442350Y626000D03*
X448650D03*
X164850Y777000D03*
X171150D03*
X306400Y342000D03*
X300100D03*
X204100Y205000D03*
X210400D03*
X254350Y774500D03*
X260650D03*
X336400Y270000D03*
X330100D03*
X204100Y295000D03*
X210400D03*
X204100Y137000D03*
X210400D03*
X374100Y205000D03*
X380400D03*
X303400Y706000D03*
X297100D03*
X339850Y445000D03*
X346150D03*
X204100Y227000D03*
X210400D03*
X373950Y428700D03*
X367650D03*
X204100Y287000D03*
X210400D03*
X318100Y318000D03*
X324400D03*
X204100Y535000D03*
X210400D03*
X411900Y139000D03*
X405600D03*
X155100Y121000D03*
X161400D03*
X204100Y355000D03*
X210400D03*
X320400Y274000D03*
X314100D03*
X303400Y720000D03*
X297100D03*
X161400Y180000D03*
X155100D03*
X442350Y596500D03*
X448650D03*
X147400Y492000D03*
X141100D03*
X435850Y150000D03*
X442150D03*
X442350Y633500D03*
X448650D03*
X204100Y655000D03*
X210400D03*
X442350Y641000D03*
X448650D03*
X442350Y603500D03*
X448650D03*
X204100Y595000D03*
X210400D03*
X161400Y728000D03*
X155100D03*
X204100Y693000D03*
X210400D03*
X442350Y618500D03*
X448650D03*
X320350Y581500D03*
X326650D03*
X442350Y611000D03*
X448650D03*
X204100Y197000D03*
X210400D03*
X204100Y715000D03*
X210400D03*
X277400Y727000D03*
X271100D03*
X352850Y292000D03*
X359150D03*
X329100Y330000D03*
X335400D03*
X305850Y526000D03*
X312150D03*
X329100Y337000D03*
X335400D03*
X306400Y356000D03*
X300100D03*
X306400Y335000D03*
X300100D03*
X320350Y593500D03*
X326650D03*
X204100Y663000D03*
X210400D03*
X403850Y198000D03*
X410150D03*
X403850Y191000D03*
X410150D03*
X442350Y648500D03*
X448650D03*
X300100Y328000D03*
X306400D03*
X156150Y777000D03*
X149850D03*
X204100Y385000D03*
X210400D03*
X303400Y699000D03*
X297100D03*
X161400Y578000D03*
X155100D03*
X191100Y492500D03*
X197400D03*
X320350Y559000D03*
X326650D03*
X204100Y723000D03*
X210400D03*
X160400Y449000D03*
X154100D03*
X326100Y700000D03*
X332400D03*
X171100Y492000D03*
X177400D03*
X161400Y240000D03*
X155100D03*
X204100Y257000D03*
X210400D03*
X255650Y262500D03*
X249350D03*
X161400Y668000D03*
X155100D03*
X204100Y625000D03*
X210400D03*
X204100Y235000D03*
X210400D03*
X204100Y685000D03*
X210400D03*
X161400Y210000D03*
X155100D03*
X383850Y180500D03*
X390150D03*
X256100Y361000D03*
X262400D03*
X203100Y474000D03*
X209400D03*
X161400Y360000D03*
X155100D03*
X375150Y730500D03*
X368850D03*
X204100Y265000D03*
X210400D03*
X204100Y633000D03*
X210400D03*
X204100Y347000D03*
X210400D03*
X204100Y325000D03*
X210400D03*
X311100Y692000D03*
X317400D03*
X160400Y479000D03*
X154100D03*
X387100Y118250D03*
X393400D03*
X376850Y700000D03*
X383150D03*
X203100Y466000D03*
X209400D03*
X411900Y146000D03*
X405600D03*
X204100Y317000D03*
X210400D03*
X204350Y752000D03*
X210650D03*
X253100Y727000D03*
X259400D03*
X204100Y565000D03*
X210400D03*
X161400Y300000D03*
X155100D03*
X161400Y638000D03*
X155100D03*
X297100Y692000D03*
X303400D03*
X204100Y505000D03*
X210400D03*
G54D22*
X321000Y206688D03*
Y221312D03*
X348000Y257688D03*
Y272312D03*
X328000Y288688D03*
Y303312D03*
G54D23*
X131250Y526791D03*
Y513209D03*
X142250Y164791D03*
Y151209D03*
G54D24*
X420000Y389400D03*
Y352600D03*
X402000Y389400D03*
Y352600D03*
X438000Y389400D03*
Y352600D03*
G54D25*
X417500Y312500D03*
Y550500D03*
G54D26*
X318650Y365055D03*
Y356000D03*
Y346945D03*
X315650Y729055D03*
Y720000D03*
Y710945D03*
G54D27*
X343850Y356000D03*
X340850Y720000D03*
G54D28*
X272750Y469250D03*
X277750D03*
X282750D03*
X287750D03*
X292750D03*
X297750D03*
X302750D03*
X307750D03*
Y502750D03*
X302750D03*
X297750D03*
X292750D03*
X287750D03*
X282750D03*
X277750D03*
X272750D03*
G54D29*
X332355Y206825D03*
X336295D03*
X340235D03*
X342205D03*
X344175D03*
X346145D03*
Y223175D03*
X344175D03*
X342205D03*
X340235D03*
X336295D03*
X332355D03*
G54D30*
X339250Y215000D03*
G54D32*
X327014Y134000D03*
X347486D03*
X327014Y157000D03*
X347486D03*
X327014Y180000D03*
X347486D03*
G54D36*
X354500Y471000D03*
Y463000D03*
Y455500D03*
G54D37*
X438750Y451250D02*
X438850D01*
Y435350*
X438750*
Y451250*
Y448600D02*
X438850D01*
X438750Y490650D02*
X438850D01*
Y474750*
X438750*
Y490650*
Y481800D02*
X438850D01*
G54D38*
X285500Y727300D03*
Y736700D03*
X245500Y727300D03*
Y736700D03*
X277500Y373300D03*
Y382700D03*
X245000Y361300D03*
Y370700D03*
X343000Y471700D03*
Y462300D03*
G54D40*
X196250Y625260D03*
Y632740D03*
X188250Y629000D03*
X196250Y505260D03*
Y512740D03*
X188250Y509000D03*
X196250Y197260D03*
Y204740D03*
X188250Y201000D03*
X195250Y406260D03*
Y413740D03*
X187250Y410000D03*
X196250Y565260D03*
Y572740D03*
X188250Y569000D03*
X196250Y655260D03*
Y662740D03*
X188250Y659000D03*
X196250Y287260D03*
Y294740D03*
X188250Y291000D03*
X196250Y595260D03*
Y602740D03*
X188250Y599000D03*
X196250Y715260D03*
Y722740D03*
X188250Y719000D03*
X196250Y377260D03*
Y384740D03*
X188250Y381000D03*
X196250Y167260D03*
Y174740D03*
X188250Y171000D03*
X196250Y317260D03*
Y324740D03*
X188250Y321000D03*
X196250Y535260D03*
Y542740D03*
X188250Y539000D03*
X196250Y347260D03*
Y354740D03*
X188250Y351000D03*
X196250Y227260D03*
Y234740D03*
X188250Y231000D03*
X196250Y685260D03*
Y692740D03*
X188250Y689000D03*
X196250Y137260D03*
Y144740D03*
X188250Y141000D03*
X196250Y257260D03*
Y264740D03*
X188250Y261000D03*
X195250Y466260D03*
Y473740D03*
X187250Y470000D03*
X195250Y436260D03*
Y443740D03*
X187250Y440000D03*
X196250Y744760D03*
Y752240D03*
X188250Y748500D03*
G54D41*
X120000Y797500D03*
X430000Y125000D03*
Y797500D03*
X120000Y125000D03*
G54D42*
X394650Y741250D03*
Y733750D03*
X403350Y737500D03*
X369900Y265500D03*
Y258000D03*
X378600Y261750D03*
G54D43*
X278250Y218000D03*
X304250D03*
G54D44*
X392000Y165000D03*
G54D45*
X382000D03*
X372000D03*
Y130000D03*
X382000D03*
X392000D03*
G54D46*
X174297Y300000D03*
X180203D03*
X435453Y618500D03*
X429547D03*
X174297Y330000D03*
X180203D03*
X174297Y548000D03*
X180203D03*
X174297Y728000D03*
X180203D03*
X174297Y578000D03*
X180203D03*
X174297Y638000D03*
X180203D03*
X435453Y603500D03*
X429547D03*
X174297Y360000D03*
X180203D03*
X173297Y419000D03*
X179203D03*
X435453Y596500D03*
X429547D03*
X173547Y760500D03*
X179453D03*
X174297Y180000D03*
X180203D03*
X329453Y108500D03*
X323547D03*
X174297Y698000D03*
X180203D03*
X173297Y449000D03*
X179203D03*
X174297Y270000D03*
X180203D03*
X174297Y240000D03*
X180203D03*
X435453Y633500D03*
X429547D03*
X435453Y611000D03*
X429547D03*
X435453Y641000D03*
X429547D03*
X329453Y115000D03*
X323547D03*
X173297Y479000D03*
X179203D03*
X174297Y390000D03*
X180203D03*
X174297Y668000D03*
X180203D03*
X344000Y310047D03*
Y315953D03*
X174297Y150000D03*
X180203D03*
X174297Y518000D03*
X180203D03*
X174297Y210000D03*
X180203D03*
X435453Y648500D03*
X429547D03*
X174297Y608000D03*
X180203D03*
X435453Y626000D03*
X429547D03*
G54D47*
X179750Y228000D03*
X154750D03*
X179750Y626000D03*
X154750D03*
X179750Y348000D03*
X154750D03*
X178750Y467000D03*
X153750D03*
X179750Y138000D03*
X154750D03*
X179750Y748000D03*
X154750D03*
X179750Y288000D03*
X154750D03*
X179750Y378000D03*
X154750D03*
X179750Y506000D03*
X154750D03*
X179750Y318000D03*
X154750D03*
X179750Y198000D03*
X154750D03*
X179750Y686000D03*
X154750D03*
X179750Y566000D03*
X154750D03*
X179750Y716000D03*
X154750D03*
X179750Y656000D03*
X154750D03*
X179750Y596000D03*
X154750D03*
X178750Y407000D03*
X153750D03*
X179750Y168000D03*
X154750D03*
X178750Y437000D03*
X153750D03*
X179750Y536000D03*
X154750D03*
X179750Y258000D03*
X154750D03*
G54D52*
X302000Y173700D03*
Y184300D03*
X282000Y173700D03*
Y184300D03*
X272000Y173700D03*
Y184300D03*
X292000Y173700D03*
Y184300D03*
X312000Y173700D03*
Y184300D03*
G54D99*
X399100Y272500D03*
X435900D03*
G54D100*
X417500Y233500D03*
G54D101*
X128000Y416000D03*
X135500D03*
X128000Y411000D03*
X135500D03*
X128000Y406000D03*
X135500D03*
X128000Y401000D03*
X135500D03*
X128000Y396000D03*
X135500D03*
X128000Y391000D03*
X135500D03*
X128000Y386000D03*
X135500D03*
X128000Y381000D03*
X135500D03*
X128000Y376000D03*
X135500D03*
X128000Y371000D03*
X135500D03*
X128000Y366000D03*
X135500D03*
X128000Y361000D03*
X135500D03*
X128000Y356000D03*
X135500D03*
X128000Y351000D03*
X135500D03*
X128000Y346000D03*
X135500D03*
X426500Y670000D03*
X419000D03*
X426500Y675000D03*
X419000D03*
X426500Y680000D03*
X419000D03*
X426500Y685000D03*
X419000D03*
X426500Y690000D03*
X419000D03*
X426500Y726500D03*
X419000D03*
X426500Y731500D03*
X419000D03*
X426500Y736500D03*
X419000D03*
X426500Y741500D03*
X419000D03*
X426500Y746500D03*
X419000D03*
X426500Y751500D03*
X419000D03*
X426500Y756500D03*
X419000D03*
X426500Y761500D03*
X419000D03*
X426500Y766500D03*
X419000D03*
X426500Y771500D03*
X419000D03*
X434500Y199000D03*
X429500D03*
G54D102*
X109400Y426200D03*
X118300D03*
X109400Y335800D03*
X118300D03*
X445100Y659800D03*
X436200D03*
X445100Y700200D03*
X436200D03*
X445100Y716300D03*
X436200D03*
X445100Y781700D03*
X436200D03*
G54D103*
X345303Y805000D03*
X340382D03*
X335461D03*
X330539D03*
X325618D03*
X320697D03*
G54D104*
X314791Y817598D03*
X351209D03*
G54D105*
X316283Y430717D03*
X318252D03*
X322189D03*
X324157D03*
X328094D03*
X330063D03*
X334000D03*
X335969D03*
X339906D03*
X341874D03*
X345811D03*
X347780D03*
X349748D03*
X351717D03*
X316283Y428748D03*
X318252D03*
X320220D03*
X322189D03*
X324157D03*
X326126D03*
X328094D03*
X330063D03*
X332031D03*
X334000D03*
X335969D03*
X337937D03*
X339906D03*
X341874D03*
X343843D03*
X345811D03*
X347780D03*
X349748D03*
X351717D03*
X316283Y426780D03*
X318252D03*
X324157D03*
X326126D03*
X330063D03*
X334000D03*
X337937D03*
X341874D03*
X343843D03*
X349748D03*
X316283Y424811D03*
X318252D03*
X326126D03*
X328094D03*
X330063D03*
X337937D03*
X339906D03*
X341874D03*
X349748D03*
X351717D03*
X318252Y422843D03*
X320220D03*
X328094D03*
X334000D03*
X339906D03*
X347780D03*
X349748D03*
X351717D03*
X316283Y420874D03*
X318252D03*
X320220D03*
X322189D03*
X334000D03*
X345811D03*
X347780D03*
X349748D03*
X316283Y418906D03*
X318252D03*
X322189D03*
X324157D03*
X334000D03*
X343843D03*
X345811D03*
X349748D03*
X351717D03*
X318252Y416937D03*
X320220D03*
X322189D03*
X332031D03*
X334000D03*
X335969D03*
X337937D03*
X345811D03*
X347780D03*
X349748D03*
X351717D03*
X316283Y414969D03*
X318252D03*
X330063D03*
X332031D03*
X334000D03*
X335969D03*
X337937D03*
X349748D03*
X316283Y413000D03*
X318252D03*
X320220D03*
X324157D03*
X326126D03*
X328094D03*
X330063D03*
X332031D03*
X334000D03*
X335969D03*
X337937D03*
X339906D03*
X341874D03*
X343843D03*
X347780D03*
X349748D03*
X351717D03*
X318252Y411031D03*
X330063D03*
X332031D03*
X334000D03*
X335969D03*
X337937D03*
X349748D03*
X351717D03*
X316283Y409063D03*
X318252D03*
X320220D03*
X322189D03*
X330063D03*
X332031D03*
X334000D03*
X335969D03*
X337937D03*
X345811D03*
X347780D03*
X349748D03*
X316283Y407094D03*
X318252D03*
X322189D03*
X324157D03*
X334000D03*
X343843D03*
X345811D03*
X349748D03*
X351717D03*
X318252Y405126D03*
X320220D03*
X322189D03*
X334000D03*
X345811D03*
X347780D03*
X349748D03*
X351717D03*
X316283Y403157D03*
X318252D03*
X320220D03*
X328094D03*
X334000D03*
X339906D03*
X347780D03*
X349748D03*
X316283Y401189D03*
X318252D03*
X326126D03*
X328094D03*
X330063D03*
X337937D03*
X339906D03*
X341874D03*
X349748D03*
X351717D03*
X318252Y399220D03*
X324157D03*
X326126D03*
X330063D03*
X334000D03*
X337937D03*
X341874D03*
X343843D03*
X349748D03*
X351717D03*
X316283Y397252D03*
X318252D03*
X320220D03*
X322189D03*
X324157D03*
X326126D03*
X328094D03*
X330063D03*
X332031D03*
X334000D03*
X335969D03*
X337937D03*
X339906D03*
X341874D03*
X343843D03*
X345811D03*
X347780D03*
X349748D03*
X351717D03*
X316283Y395283D03*
X318252D03*
X320220D03*
X322189D03*
X326126D03*
X328094D03*
X332031D03*
X334000D03*
X337937D03*
X339906D03*
X343843D03*
X345811D03*
X349748D03*
X351717D03*
G54D106*
X367700Y420500D03*
Y411839D03*
X373999D03*
Y420500D03*
G54D107*
X371500Y322000D03*
Y327000D03*
Y332000D03*
Y337000D03*
Y342000D03*
G54D108*
X347091Y332000D03*
G54D109*
X410000Y181000D03*
G54D110*
Y171000D03*
Y161000D03*
X445000D03*
Y171000D03*
Y181000D03*
G54D111*
X368260Y710882D03*
X375740D03*
X372000Y721118D03*
X368260Y739882D03*
X375740D03*
X372000Y750118D03*
G54D112*
X325469Y538047D03*
Y540016D03*
Y541984D03*
Y543953D03*
X321531D03*
Y541984D03*
Y540016D03*
Y538047D03*
G54D113*
X444700Y199000D03*
X419300D03*
G54D114*
X263500Y138000D03*
X253500D03*
X243500D03*
X233500D03*
Y108000D03*
X263500D03*
X303500Y138000D03*
X293500D03*
X283500D03*
X273500D03*
Y108000D03*
X303500D03*
G54D115*
X404100Y771043D03*
Y773602D03*
Y776161D03*
Y778720D03*
Y781280D03*
Y783839D03*
Y786398D03*
Y788957D03*
X381900D03*
Y786398D03*
Y783839D03*
Y781280D03*
Y778720D03*
Y776161D03*
Y773602D03*
Y771043D03*
X0Y0D02*
M02*
